<mxfile host="Electron" agent="Mozilla/5.0 (Windows NT 10.0; Win64; x64) AppleWebKit/537.36 (KHTML, like Gecko) draw.io/28.0.6 Chrome/138.0.7204.100 Electron/37.2.3 Safari/537.36" version="28.0.6" pages="2">
  <diagram name="Page-1" id="kAj94AMixcY2QlcdIFRy">
    <mxGraphModel dx="1120" dy="1726" grid="1" gridSize="10" guides="1" tooltips="1" connect="1" arrows="1" fold="1" page="1" pageScale="1" pageWidth="850" pageHeight="1100" math="0" shadow="0">
      <root>
        <mxCell id="0" />
        <mxCell id="1" parent="0" />
        <mxCell id="83v3PrSIQ1L7RLbGrcbA-2" value="" style="rounded=0;whiteSpace=wrap;html=1;fillColor=none;strokeColor=light-dark(#a9a7a7, #ededed);dashed=1;" vertex="1" parent="1">
          <mxGeometry x="50" y="-840" width="120" height="410" as="geometry" />
        </mxCell>
        <mxCell id="83v3PrSIQ1L7RLbGrcbA-3" value="&lt;b&gt;&lt;font style=&quot;font-size: 24px;&quot;&gt;High Level Architecure&lt;/font&gt;&lt;/b&gt;" style="text;strokeColor=none;align=center;fillColor=none;html=1;verticalAlign=middle;whiteSpace=wrap;rounded=0;" vertex="1" parent="1">
          <mxGeometry x="80" y="-1080" width="300" height="30" as="geometry" />
        </mxCell>
        <mxCell id="83v3PrSIQ1L7RLbGrcbA-5" value="&lt;font style=&quot;font-size: 24px;&quot;&gt;Sources&lt;/font&gt;" style="rounded=0;whiteSpace=wrap;html=1;strokeColor=none;" vertex="1" parent="1">
          <mxGeometry x="65" y="-860" width="90" height="30" as="geometry" />
        </mxCell>
        <mxCell id="83v3PrSIQ1L7RLbGrcbA-6" value="" style="rounded=0;whiteSpace=wrap;html=1;strokeColor=light-dark(#a19b9b, #ededed);dashed=1;fillColor=none;" vertex="1" parent="1">
          <mxGeometry x="210" y="-840" width="475" height="400" as="geometry" />
        </mxCell>
        <mxCell id="83v3PrSIQ1L7RLbGrcbA-7" value="&lt;span style=&quot;font-size: 24px;&quot;&gt;Data Ware House&lt;/span&gt;" style="rounded=0;whiteSpace=wrap;html=1;strokeColor=none;fillColor=default;" vertex="1" parent="1">
          <mxGeometry x="310" y="-860" width="210" height="30" as="geometry" />
        </mxCell>
        <mxCell id="83v3PrSIQ1L7RLbGrcbA-8" value="Ad- Hoc&lt;div&gt;SQL Quiers&lt;/div&gt;" style="rounded=0;whiteSpace=wrap;html=1;fillColor=none;dashed=1;strokeColor=light-dark(#b9b1b1, #7f7f7f);" vertex="1" parent="1">
          <mxGeometry x="706.9" y="-845" width="120" height="405" as="geometry" />
        </mxCell>
        <mxCell id="83v3PrSIQ1L7RLbGrcbA-11" value="&lt;span style=&quot;font-size: 24px;&quot;&gt;Consume&lt;/span&gt;" style="rounded=0;whiteSpace=wrap;html=1;strokeColor=none;" vertex="1" parent="1">
          <mxGeometry x="715" y="-860" width="95" height="30" as="geometry" />
        </mxCell>
        <mxCell id="83v3PrSIQ1L7RLbGrcbA-84" value="&lt;font style=&quot;font-size: 20px;&quot;&gt;Bronze Layer&lt;/font&gt;" style="rounded=0;whiteSpace=wrap;html=1;strokeColor=#d79b00;fillColor=#ffe6cc;" vertex="1" parent="1">
          <mxGeometry x="220" y="-812.5" width="130" height="30" as="geometry" />
        </mxCell>
        <mxCell id="83v3PrSIQ1L7RLbGrcbA-85" value="" style="rounded=0;whiteSpace=wrap;html=1;fillColor=none;strokeColor=#d79b00;" vertex="1" parent="1">
          <mxGeometry x="225" y="-782" width="120" height="322" as="geometry" />
        </mxCell>
        <mxCell id="83v3PrSIQ1L7RLbGrcbA-86" value="&lt;font style=&quot;font-size: 20px;&quot;&gt;Silver Layer&lt;/font&gt;" style="rounded=0;whiteSpace=wrap;html=1;strokeColor=#666666;fillColor=#f5f5f5;fontColor=#333333;" vertex="1" parent="1">
          <mxGeometry x="370" y="-812" width="130" height="30" as="geometry" />
        </mxCell>
        <mxCell id="83v3PrSIQ1L7RLbGrcbA-87" value="" style="rounded=0;whiteSpace=wrap;html=1;fillColor=none;strokeColor=#666666;fontColor=#333333;" vertex="1" parent="1">
          <mxGeometry x="375" y="-782" width="120" height="322" as="geometry" />
        </mxCell>
        <mxCell id="83v3PrSIQ1L7RLbGrcbA-88" value="&lt;font style=&quot;font-size: 20px;&quot;&gt;Gold Layer&lt;/font&gt;" style="rounded=0;whiteSpace=wrap;html=1;strokeColor=#d6b656;fillColor=#fff2cc;" vertex="1" parent="1">
          <mxGeometry x="520" y="-812" width="130" height="30" as="geometry" />
        </mxCell>
        <mxCell id="83v3PrSIQ1L7RLbGrcbA-89" value="" style="rounded=0;whiteSpace=wrap;html=1;fillColor=none;strokeColor=#d6b656;" vertex="1" parent="1">
          <mxGeometry x="525" y="-782" width="120" height="322" as="geometry" />
        </mxCell>
        <mxCell id="sIMiyn0A-wrYiBe2mgz4-1" value="&lt;b&gt;CRM&lt;/b&gt;" style="image;aspect=fixed;html=1;points=[];align=center;fontSize=12;image=img/lib/azure2/general/Folder_Blank.svg;" vertex="1" parent="1">
          <mxGeometry x="80" y="-740" width="49.29" height="40" as="geometry" />
        </mxCell>
        <mxCell id="sIMiyn0A-wrYiBe2mgz4-2" value="" style="image;aspect=fixed;html=1;points=[];align=center;fontSize=12;image=img/lib/azure2/general/File.svg;" vertex="1" parent="1">
          <mxGeometry x="110.3" y="-730" width="24.35" height="30" as="geometry" />
        </mxCell>
        <mxCell id="sIMiyn0A-wrYiBe2mgz4-6" value="&lt;b&gt;ERP&lt;/b&gt;" style="image;aspect=fixed;html=1;points=[];align=center;fontSize=12;image=img/lib/azure2/general/Folder_Blank.svg;" vertex="1" parent="1">
          <mxGeometry x="80" y="-605" width="49.29" height="40" as="geometry" />
        </mxCell>
        <mxCell id="sIMiyn0A-wrYiBe2mgz4-7" value="" style="image;aspect=fixed;html=1;points=[];align=center;fontSize=12;image=img/lib/azure2/general/File.svg;" vertex="1" parent="1">
          <mxGeometry x="110.3" y="-595" width="24.35" height="30" as="geometry" />
        </mxCell>
        <mxCell id="sIMiyn0A-wrYiBe2mgz4-10" value="" style="endArrow=none;html=1;rounded=0;strokeColor=light-dark(#b9acac, #ededed);" edge="1" parent="1">
          <mxGeometry width="50" height="50" relative="1" as="geometry">
            <mxPoint x="59.650000000000006" y="-520" as="sourcePoint" />
            <mxPoint x="149.65" y="-520" as="targetPoint" />
          </mxGeometry>
        </mxCell>
        <mxCell id="sIMiyn0A-wrYiBe2mgz4-11" value="&lt;font style=&quot;font-size: 10px;&quot;&gt;&lt;b&gt;Object Type&lt;/b&gt;: CSV&amp;nbsp;&lt;/font&gt;" style="text;html=1;align=center;verticalAlign=middle;whiteSpace=wrap;rounded=0;" vertex="1" parent="1">
          <mxGeometry x="50" y="-500" width="110" height="30" as="geometry" />
        </mxCell>
        <mxCell id="sIMiyn0A-wrYiBe2mgz4-12" value="&lt;span style=&quot;font-size: 10px;&quot;&gt;&lt;b&gt;Interfcae :&lt;/b&gt;Files in Folder&lt;/span&gt;" style="text;html=1;align=center;verticalAlign=middle;whiteSpace=wrap;rounded=0;" vertex="1" parent="1">
          <mxGeometry x="50" y="-470" width="120" height="30" as="geometry" />
        </mxCell>
        <mxCell id="sIMiyn0A-wrYiBe2mgz4-13" value="" style="html=1;verticalLabelPosition=bottom;align=center;labelBackgroundColor=#ffffff;verticalAlign=top;strokeWidth=2;strokeColor=#d79b00;shadow=0;dashed=0;shape=mxgraph.ios7.icons.data;fillColor=#ffe6cc;" vertex="1" parent="1">
          <mxGeometry x="260" y="-750" width="40" height="40" as="geometry" />
        </mxCell>
        <mxCell id="sIMiyn0A-wrYiBe2mgz4-14" value="" style="html=1;verticalLabelPosition=bottom;align=center;labelBackgroundColor=#ffffff;verticalAlign=top;strokeWidth=2;strokeColor=#666666;shadow=0;dashed=0;shape=mxgraph.ios7.icons.data;fillColor=#f5f5f5;fontColor=#333333;" vertex="1" parent="1">
          <mxGeometry x="410" y="-750" width="40" height="40" as="geometry" />
        </mxCell>
        <mxCell id="sIMiyn0A-wrYiBe2mgz4-15" value="" style="html=1;verticalLabelPosition=bottom;align=center;labelBackgroundColor=#ffffff;verticalAlign=top;strokeWidth=2;strokeColor=#d6b656;shadow=0;dashed=0;shape=mxgraph.ios7.icons.data;fillColor=#fff2cc;" vertex="1" parent="1">
          <mxGeometry x="552.5" y="-750" width="40" height="40" as="geometry" />
        </mxCell>
        <mxCell id="sIMiyn0A-wrYiBe2mgz4-16" value="" style="shape=singleArrow;whiteSpace=wrap;html=1;fillColor=#b1ddf0;strokeColor=#10739e;" vertex="1" parent="1">
          <mxGeometry x="170" y="-690" width="60" height="20" as="geometry" />
        </mxCell>
        <mxCell id="sIMiyn0A-wrYiBe2mgz4-17" value="" style="shape=singleArrow;whiteSpace=wrap;html=1;fillColor=#b1ddf0;strokeColor=#10739e;" vertex="1" parent="1">
          <mxGeometry x="345" y="-690" width="45" height="20" as="geometry" />
        </mxCell>
        <mxCell id="sIMiyn0A-wrYiBe2mgz4-18" value="" style="shape=singleArrow;whiteSpace=wrap;html=1;fillColor=#b1ddf0;strokeColor=#10739e;" vertex="1" parent="1">
          <mxGeometry x="480" y="-690" width="55" height="20" as="geometry" />
        </mxCell>
        <mxCell id="sIMiyn0A-wrYiBe2mgz4-19" value="" style="shape=singleArrow;whiteSpace=wrap;html=1;fillColor=#b1ddf0;strokeColor=#10739e;" vertex="1" parent="1">
          <mxGeometry x="655" y="-690" width="55" height="20" as="geometry" />
        </mxCell>
        <mxCell id="sIMiyn0A-wrYiBe2mgz4-20" value="Raw Data" style="text;html=1;align=center;verticalAlign=middle;whiteSpace=wrap;rounded=0;" vertex="1" parent="1">
          <mxGeometry x="255" y="-710" width="55" height="20" as="geometry" />
        </mxCell>
        <mxCell id="sIMiyn0A-wrYiBe2mgz4-21" value="Clean, Standarlized Data" style="text;html=1;align=center;verticalAlign=middle;whiteSpace=wrap;rounded=0;" vertex="1" parent="1">
          <mxGeometry x="400" y="-700" width="55" height="20" as="geometry" />
        </mxCell>
        <mxCell id="sIMiyn0A-wrYiBe2mgz4-22" value="Business Ready Data" style="text;html=1;align=center;verticalAlign=middle;whiteSpace=wrap;rounded=0;" vertex="1" parent="1">
          <mxGeometry x="545" y="-700" width="55" height="20" as="geometry" />
        </mxCell>
        <mxCell id="sIMiyn0A-wrYiBe2mgz4-25" value="" style="endArrow=none;html=1;rounded=0;strokeColor=light-dark(#b9acac, #ededed);" edge="1" parent="1">
          <mxGeometry width="50" height="50" relative="1" as="geometry">
            <mxPoint x="245" y="-660" as="sourcePoint" />
            <mxPoint x="335" y="-660" as="targetPoint" />
          </mxGeometry>
        </mxCell>
        <mxCell id="sIMiyn0A-wrYiBe2mgz4-26" value="" style="endArrow=none;html=1;rounded=0;strokeColor=light-dark(#b9acac, #ededed);" edge="1" parent="1">
          <mxGeometry width="50" height="50" relative="1" as="geometry">
            <mxPoint x="390" y="-660" as="sourcePoint" />
            <mxPoint x="480" y="-660" as="targetPoint" />
          </mxGeometry>
        </mxCell>
        <mxCell id="sIMiyn0A-wrYiBe2mgz4-27" value="" style="endArrow=none;html=1;rounded=0;strokeColor=light-dark(#b9acac, #ededed);" edge="1" parent="1">
          <mxGeometry width="50" height="50" relative="1" as="geometry">
            <mxPoint x="540" y="-660" as="sourcePoint" />
            <mxPoint x="630" y="-660" as="targetPoint" />
          </mxGeometry>
        </mxCell>
        <mxCell id="sIMiyn0A-wrYiBe2mgz4-28" value="&lt;font style=&quot;font-size: 10px;&quot;&gt;&lt;b&gt;Object Type&lt;/b&gt;: Table&amp;nbsp;&lt;/font&gt;" style="text;html=1;align=center;verticalAlign=middle;whiteSpace=wrap;rounded=0;" vertex="1" parent="1">
          <mxGeometry x="230" y="-655" width="110" height="30" as="geometry" />
        </mxCell>
        <mxCell id="sIMiyn0A-wrYiBe2mgz4-32" value="&lt;font style=&quot;font-size: 10px;&quot;&gt;&lt;b&gt;Object Type&lt;/b&gt;: Table&amp;nbsp;&lt;/font&gt;" style="text;html=1;align=center;verticalAlign=middle;whiteSpace=wrap;rounded=0;" vertex="1" parent="1">
          <mxGeometry x="390" y="-655" width="100" height="25" as="geometry" />
        </mxCell>
        <mxCell id="sIMiyn0A-wrYiBe2mgz4-33" value="&lt;font style=&quot;font-size: 10px;&quot;&gt;&lt;b&gt;Object Type&lt;/b&gt;: Views&amp;nbsp;&lt;/font&gt;" style="text;html=1;align=center;verticalAlign=middle;whiteSpace=wrap;rounded=0;" vertex="1" parent="1">
          <mxGeometry x="530" y="-655" width="110" height="30" as="geometry" />
        </mxCell>
        <mxCell id="sIMiyn0A-wrYiBe2mgz4-34" value="&lt;b&gt;&lt;font style=&quot;font-size: 10px;&quot;&gt;Load&lt;/font&gt;:&lt;/b&gt;&lt;div&gt;&lt;font style=&quot;font-size: 10px;&quot;&gt;Batch Processing&lt;/font&gt;&lt;/div&gt;&lt;div&gt;&lt;font style=&quot;font-size: 10px;&quot;&gt;Full Load&lt;/font&gt;&lt;/div&gt;&lt;div&gt;&lt;font style=&quot;font-size: 10px;&quot;&gt;Truncate &amp;amp; Insert&lt;/font&gt;&lt;/div&gt;&lt;div&gt;&lt;b&gt;&amp;nbsp;&lt;/b&gt;&lt;/div&gt;" style="text;html=1;align=center;verticalAlign=middle;whiteSpace=wrap;rounded=0;" vertex="1" parent="1">
          <mxGeometry x="235" y="-610" width="90" height="40" as="geometry" />
        </mxCell>
        <mxCell id="sIMiyn0A-wrYiBe2mgz4-35" value="&lt;span style=&quot;font-size: 10px;&quot;&gt;No&lt;b&gt; Transformation&lt;/b&gt;&lt;/span&gt;" style="text;html=1;align=center;verticalAlign=middle;whiteSpace=wrap;rounded=0;" vertex="1" parent="1">
          <mxGeometry x="230" y="-565" width="100" height="25" as="geometry" />
        </mxCell>
        <mxCell id="sIMiyn0A-wrYiBe2mgz4-36" value="&lt;span style=&quot;font-size: 10px;&quot;&gt;&lt;b&gt;Data Model: &lt;/b&gt;None&lt;/span&gt;" style="text;html=1;align=center;verticalAlign=middle;whiteSpace=wrap;rounded=0;" vertex="1" parent="1">
          <mxGeometry x="235" y="-525" width="100" height="25" as="geometry" />
        </mxCell>
        <mxCell id="sIMiyn0A-wrYiBe2mgz4-38" value="&lt;b&gt;&lt;font style=&quot;font-size: 10px;&quot;&gt;Load:&lt;/font&gt;&lt;/b&gt;&lt;div&gt;&lt;font style=&quot;font-size: 10px;&quot;&gt;Batch Processing&lt;/font&gt;&lt;/div&gt;&lt;div&gt;&lt;font style=&quot;font-size: 10px;&quot;&gt;Full Load&lt;/font&gt;&lt;/div&gt;&lt;div&gt;&lt;font style=&quot;font-size: 10px;&quot;&gt;Truncate &amp;amp; Insert&lt;/font&gt;&lt;/div&gt;&lt;div&gt;&lt;b&gt;&amp;nbsp;&lt;/b&gt;&lt;/div&gt;" style="text;html=1;align=center;verticalAlign=middle;whiteSpace=wrap;rounded=0;" vertex="1" parent="1">
          <mxGeometry x="382.5" y="-620" width="90" height="40" as="geometry" />
        </mxCell>
        <mxCell id="sIMiyn0A-wrYiBe2mgz4-39" value="&lt;span style=&quot;font-size: 10px;&quot;&gt;&lt;b&gt;Transformation:&lt;/b&gt;&lt;/span&gt;&lt;div&gt;&lt;span style=&quot;font-size: 10px;&quot;&gt;Data Cleansing&lt;/span&gt;&lt;/div&gt;&lt;div&gt;&lt;span style=&quot;font-size: 10px;&quot;&gt;Standardization&lt;/span&gt;&lt;/div&gt;&lt;div&gt;&lt;span style=&quot;font-size: 10px;&quot;&gt;Normalization&lt;/span&gt;&lt;/div&gt;&lt;div&gt;&lt;span style=&quot;font-size: 10px;&quot;&gt;Derived Columns&lt;/span&gt;&lt;/div&gt;&lt;div&gt;&lt;span style=&quot;font-size: 10px;&quot;&gt;Enrichement&lt;/span&gt;&lt;/div&gt;" style="text;html=1;align=center;verticalAlign=middle;whiteSpace=wrap;rounded=0;" vertex="1" parent="1">
          <mxGeometry x="380" y="-540" width="100" height="15" as="geometry" />
        </mxCell>
        <mxCell id="sIMiyn0A-wrYiBe2mgz4-40" value="&lt;span style=&quot;font-size: 10px;&quot;&gt;&lt;b&gt;Data Model: &lt;/b&gt;None&lt;/span&gt;" style="text;html=1;align=center;verticalAlign=middle;whiteSpace=wrap;rounded=0;" vertex="1" parent="1">
          <mxGeometry x="385" y="-485" width="100" height="25" as="geometry" />
        </mxCell>
        <mxCell id="sIMiyn0A-wrYiBe2mgz4-42" value="&lt;span style=&quot;background-color: transparent; color: light-dark(rgb(0, 0, 0), rgb(255, 255, 255)); font-size: 10px;&quot;&gt;No &lt;b&gt;Loads&lt;/b&gt;&lt;/span&gt;&lt;b style=&quot;background-color: transparent; color: light-dark(rgb(0, 0, 0), rgb(255, 255, 255));&quot;&gt;&amp;nbsp;&lt;/b&gt;" style="text;html=1;align=center;verticalAlign=middle;whiteSpace=wrap;rounded=0;" vertex="1" parent="1">
          <mxGeometry x="530" y="-630" width="90" height="40" as="geometry" />
        </mxCell>
        <mxCell id="sIMiyn0A-wrYiBe2mgz4-43" value="&lt;span style=&quot;font-size: 10px;&quot;&gt;&lt;b&gt;Transformation:&lt;/b&gt;&lt;/span&gt;&lt;div&gt;&lt;span style=&quot;font-size: 10px;&quot;&gt;Data Integration&lt;/span&gt;&lt;/div&gt;&lt;div&gt;&lt;span style=&quot;font-size: 10px;&quot;&gt;Aggregations&lt;/span&gt;&lt;/div&gt;&lt;div&gt;&lt;span style=&quot;font-size: 10px;&quot;&gt;Business Logics&lt;/span&gt;&lt;/div&gt;" style="text;html=1;align=center;verticalAlign=middle;whiteSpace=wrap;rounded=0;" vertex="1" parent="1">
          <mxGeometry x="535" y="-570" width="100" height="5" as="geometry" />
        </mxCell>
        <mxCell id="sIMiyn0A-wrYiBe2mgz4-45" value="&lt;span style=&quot;font-size: 10px;&quot;&gt;&lt;b&gt;Data Model:&amp;nbsp;&lt;/b&gt;&lt;/span&gt;&lt;div&gt;&lt;span style=&quot;font-size: 10px;&quot;&gt;Star Schema&lt;/span&gt;&lt;/div&gt;&lt;div&gt;&lt;span style=&quot;font-size: 10px;&quot;&gt;Flat Table&lt;/span&gt;&lt;/div&gt;&lt;div&gt;&lt;span style=&quot;font-size: 10px;&quot;&gt;Aggregated Table&lt;/span&gt;&lt;/div&gt;" style="text;html=1;align=center;verticalAlign=middle;whiteSpace=wrap;rounded=0;" vertex="1" parent="1">
          <mxGeometry x="535" y="-520" width="100" height="25" as="geometry" />
        </mxCell>
        <mxCell id="sIMiyn0A-wrYiBe2mgz4-47" value="BI &amp;amp; Reporting" style="image;aspect=fixed;html=1;points=[];align=center;fontSize=12;image=img/lib/azure2/analytics/Power_BI_Embedded.svg;" vertex="1" parent="1">
          <mxGeometry x="742" y="-812" width="36" height="48" as="geometry" />
        </mxCell>
        <mxCell id="sIMiyn0A-wrYiBe2mgz4-48" value="" style="sketch=0;pointerEvents=1;shadow=0;dashed=0;html=1;strokeColor=#006EAF;labelPosition=center;verticalLabelPosition=bottom;verticalAlign=top;align=center;fillColor=#1ba1e2;shape=mxgraph.mscae.oms.log_search;direction=north;fontColor=#ffffff;" vertex="1" parent="1">
          <mxGeometry x="744.5" y="-690" width="43.25" height="36.88" as="geometry" />
        </mxCell>
        <mxCell id="sIMiyn0A-wrYiBe2mgz4-52" value="Machine Learning" style="text;html=1;align=center;verticalAlign=middle;whiteSpace=wrap;rounded=0;" vertex="1" parent="1">
          <mxGeometry x="736.9" y="-514.9" width="60" height="30" as="geometry" />
        </mxCell>
        <mxCell id="sIMiyn0A-wrYiBe2mgz4-53" value="" style="shape=image;verticalLabelPosition=bottom;labelBackgroundColor=default;verticalAlign=top;aspect=fixed;imageAspect=0;image=data:image/png,iVBORw0KGgoAAAANSUhEUgAAAIAAAACACAYAAADDPmHLAAAACXBIWXMAAAOwAAADsAEnxA+tAAAAGXRFWHRTb2Z0d2FyZQB3d3cuaW5rc2NhcGUub3Jnm+48GgAAIABJREFUeJztvXecVPX1//8873tnZvvSESsiTUBWBOy9kBhjibH3xFgTSxRrYu8IdmPvJTbssUQUsSK9l2XpvSy7O9um3ff5/XFndmaWBSkLbL6/z+uhD2Zvfd97zn2/Tz/wf/j/NWR7D2BboHfv3sF4PL5zx2J39xOO5GLXlT3fH5l4fVW5//zWWtdxpODAvZ0unTvR8dPv7WuVYZ3ted7CuXPnLgO87fwIWw3/zzFA//79A1VVVQMcxzlEVQcAfYBuIjitCsW2KcJpUyzMXaIT1lbpWqB1fg75uTnSpbJag4lGpDaGWOdOEs3LNROnzkm85HneN/PmzVu0HR5tq+D/CQbYfffdOwYCgeNF5ATgKFVdDowXkQnHHGCqrzwjeH77NrqvYwSgXtEbiwdMeaxudN+dPVfuVzgLEGvx5i/znjnnH/E3d9+JIzq1k0uWrtSd5y8Fz2rD/QrzWFXS3Zk7dmb82qlTy0YD2uTA/gfwP8sAi0b1O+G7sbGhb3zu2bmLbWcRGa2qH4nIh7Nnz55fM6b3DlbcexHOB0zytDFgzy+MFSysCdYNVrgByE/um6HKn6wrpY7VW1H+BgQAqmt554Lb4p+o2nMrw/aocC1OxlDm9d7DfN1zD/vQfU+Uztp2b6B58D/HAJ8/23vg2Jm89t+fEz0K84Sj9jOlzw5PHFRaWroGQOd0DVVX5V8N/AMoTJ4WF7i7oLr1vTWFlX9Q9EFgt+S+BMiDNTh3F2riXBXuAton9y1BuIwEpTgMA37vWWXCTI0++VZ86ox5tq9VggCOwXqWV40x982aNat0272RLcP/DAM8dnvfnectir8zarw9oP+ewrm/D9BvT/OT8RJ/LNh3+gqA8PiSP6AMBbpknDrDij1PrbEO8giih2bsm2rF/smxTqGKPgKUJLerIk8HbOK+hHGvBL0SfEKr6AhRuQO4sDKs5334rWfe+yqhK8pVAIxBe+9hpk+fy/GzZs1asLXfy5aixTPA7af2DlYW2pd/mOSd3q+HYy76o0vPzgbQ5wpzvb9J7+mxmvF9+lp1HgaOzDjVAo8kcB91if8T5ELSS0Fc4X7xeB1H7gE9JeO8UlG5RMV2BbkH6OBv1nIRc7OqtgFuJjW7CD/V1ZpbX/40euun33mHrlrbIA5EgEcDgcDd06dPr9k6b2fL0aIZ4P7r9rxs1Hg7zBhyrz0vyIBeBiAmcFXhgMlPh8f1b6ck7hK4CLLW5QVW5WIj2he4BShO7VCYJHCFiv5WVK4FcpK7EsAwC98I3C/Qj/RJr2PkO5QbQPdIbq1S9FZBAsA/gVaRmPL88MS8Vz+Nt7UqxQDtWku8rs6cNGnqzM+20mvaIrRIBpj4yd7dXvso9vGIXxI9Lz0lwJnHOiQl+JWInlqogdFhTfxNhFuBVo1Of0FUR6jIHUD3jO0xVblP0EUIdwI7pXb4TCF3KHqmwGkZ58wHnlTlWBGOSm+W98B+CTIY6JHcWAF6vRE7ZmW5efyRN+KHfvlzlk75fE1NzVXLli2r28LX06xoUQywYnLf/BlT7INDX45f6rrInZcF6bJzctZWHeeqPTku7l4i+hDpF99wOiIPYfVIhN9m7hCYoOhTyWVg/4xdEYWhgjigVwO5ye0JlNcQBDgHcP3r6CIV8wRwBKrHpi6iwltGzF3Wen8V5OLU8e+N8L4d8nJ0T2ulI0D71rJ2397m9IdfnDmied7YlqPFMID+dEDuO2Or59//Yrzjbw80DD4/SMBN7hRe8ywPO3BvY+ICqPK1EVao//UGMnZFFX3BQCtFziT7eX9Qf7r/M7BzerNMAZ0AnAC0SW70QF8HEwc9P+MeC1C9SoXOgtwOtE5tV+HS4v6Tv3zzkX36fjCi7rPJpXYnANchlvA4vbS09MMteV/NhRbDAH379rjbS+jNN/05ICccnqI8CYX7DFKk6OVkExegGpiCPxu0y94lUwQ7TZETgIKsc5T3QHsickDG9lrxmaIz2bPLVGAMPkOk1MME8BjCDyh3A72S2z1Rfbw2yD9tPKD5JG4UGKxK7vMfJHh2eFxVERHYfy/3jVfem3HOpr+p5oXz64dsXfTv3z9QUFDwnOdx4ZmDzH0XnBgswZ+Kq1C+ENFTgSNYd6xxoB6fWHkZ2yPABEHbKXIwSfUNkkuBMleEkxDZNX2KzAVWAQeSZCSBOuC/+F/1b0gajAQmiOpgkMOBW0kzxVRVTiwcMOUlu6TTKSHsRwLHAwER5vfvJUN3bC8dxs3QjrE4LFlp+7Zt27awvLz8qy1+iVuA7ToDJJ00bwOH33Fp4PXjDnUvI03oWtJWuo2CQJ1CGNih0a5qYAH+112YsT0KlOMTPZixfZYgtYr2z9hWqzBMhEKUv2YcHxW4uwD3gSpjS4zaR1EOTO6LA68iBFHOApxZ86y96O5orD7iax99u5uf3/t01kFsJ3PydmOArl27howxw4HDHrou+POh/ZxjttKt6vEJUdTEvgRJgS2JWvyZoBNp9RCBLy2MTaqbHTOO/wHsRQ7BKk8T9zQyO/+CMB3lZNKaymRE35k5jwuuHhLpVl6VvL7IY7Nnz75qyx9107G9lgCnffv2/xbh2EevDy49pJ8zsNF+pfmYMwCE1rPPZPyOJf9tT5opVir6qiA9gNNJyxJhQf9eWB2+JhbKPV+x7yDslxzzWpTPEXYDjsZnpBpVnhMjinJ5+9bS9tD+buKz773aWIIQsF/btm1NeXn5t830zBuN7TID9OjR42lVveTmPwdqTj7aLWi0eyH+NN2miVO3FVRgBKAKx5D5nkQ+dh29PJGQgcDQDMOQAmNQdRAZ0HAh5WuB5QinkJ5VxhjsXwacE0et/VGhUAQOKnHuevGdmbdum0dMPs62vBlA9+7drwWGnnmsY689N9jwBSosFl+iP5gMy922RnIccwX21WzhcoUgV6J2pkUeyTYMsVJhuUBvkpqKwmJRxiLsD+yYPK5WRf5ZNLfb45z6rg1PKDn7+3HeI9c9HGvrWXAMCcUcNmvWrJ+20eNuWwbYd+9ux4Uj8kmPzkZevD2U0vPrFX1JxOyeaVzZDojjW/5a0WD/B0BRXlbj3Iv1rhbhEtJLRBxfZigkLWMkgNH42kPvjKt84blyWet+kxZUjS3ZV4RHSRqlho/w6u57MZYHEHBZWdzK6/vTT3NXbbUnzYD59UOaB3df32NAXM2HuSGR+64IEnBRVd4WkesEObkJ4tttNTZ81bEG33ScQXyZq8KxKkwU9X4R4a9kEz+Gb1IuAt9SCDIDOIg08VercG7RwMnHBlVi4XF7vyLCaJLEF/TNUw+ny44d5HOAeIKO+UF3FNvo49wmDLB41J7dps6SH2vr1b3izAC7dJQJqvJ7EWpU9Qmy1DYtB1aybWenHNJWPIAEqg+iXCvKQwKPsa5MEiCtpkYUFoO0A+1LauzK6+D2KgpXvRce1/cmz9rZoOcl989T4bcJ49zsuc5j7zyQc+wuO/inLVymPbt3737ZVnzeBmwTBrjxUbl54iwb7NXFxE88TC4GBovok8CFGYfVAyNBoviq1nYRUBUminAOxvRA9EPSVr71IYovNO6SITMsUNFjiwZOPlckcWh1YfEMkHvxtYg4whBw90M5yLF2psBpOSG47rzAeFRTHqQHevbs2XnrPGUaW50Bevbs2X3stMTpgM3N1d8GAqan+hJ254zD/gP6X+Aw0gLTtkY9KveK8K0qr6J6wkaeFyLtRPJE9ZG6gPZxsMvC40q+UWU4sHty/y/GmIGqMhkSE8V3VecCFSgX/ubCaQMReSB5bEHHNrzffI/XNLb2VybdunX7RkQOb1vM518+lbsbGV+UwkQDHyqcT3YUz7aF6ChUfgb+RLahZ1MuMkVVLxJx5zURoxBW5R+IjhWRhzIshYC8Z2z8ioJ9p6+o+ql3m+q4e89p10UuXVPpGwZV9fdz5sz5zxY83QaxVWeAHj16/FFEDhdR74U7co4hTfxVqlwD/KJwO9nEr8GfVrcFKkFfEZVC4EY2j/gRUflnDc4BiB4AiVKBS0kRX3nfij1ShP6C/JRB/KWonFQ0YNKp+bXt11SP3/uvEnRKi/K59G9npI2TIjLs8MMPd9e9bfNgqzFA7969g67DUIDfHew6O3cQFz848zGEC0W4PPmiBBqcLzPwDSrrs9w1GxQmAhNAzlPYZzMv86OIs484dnQBiV8EeYS0MLlMVc9S0e+Mmm+AC/DftyK8prFE36KBkz6qHldyRHVh5XhfGJa2AnW/PdC9SWBc8jo9li5deu4WPewGsNUY4OC9vWfiCd1NBM45LgDwqTXmQFVyUD4GuiYPVWCkhdn4M0Thei7ZXKgEJhvfi3gkm7cMVorIJaheqOoNsVZG4CegAHiCPKrKjSLmriRTpGwEsxE9rKj/5PM0KK3D40o+UPgmqTkA+lkcd882+0++P7/A3Jm6WVGBGda/f//GrvBmwVaZWrp27RqaNFvPAOjT1dR13U1OVsCx3nDNcsMyBnQmyB+kaWcNAItXWKbPVVattVRlhFe2ayW0byPs2F7YYxdDaMOvSPG9ggYo2QLX2wcizj9+nhy/wXV5sv+e4oo03GCiiDxmrZ4jwlUZDr64ig4pCofvXhMIBcLjSu4HriY9061W5OriAZPfBAiP7XuCIsNOuz7K/KWW6lptLVJzGvDG5g+7aWwVBjDGnF8R1hyA8kpzrcBpKH9SUq+KZQovChwOcv76rvPxtwle+thj8Ypftwm5DnTdVTioxOWIgQ49d2/yw14vk2ViyUrly58TLFimVIShLgJ1ERtfvVYXBwNS0rGNTJ421wYAeu4uqGIrwrI6ntA9CnJ5MT8PycsRdt1BOOPYwJTuu9hz8/eZNq16Qsn5IeUefG+jD+E11L2meMD4NdVjSnpjeFjhGAFOH+RE73/JhgDyc/SfbAUG2CpaQLdu3aaKSB/XldqRz+dU5gYbAjAjCI+pEhMYTIbLlUau2WgcDjq/vmFnYT50aG3o0Bbyc4RIDGrqlKWrlNUV637P/XoarjwzwF7dNn2VW12hjJ/hsWw11NQri5bptFUVWtprD3NQmyI6fjfBMmu+z5S9upi13XYz03dqL/0jMc3LCQqF+VCYR9QNyGOrJ4X+ceZfvIGIfTTTSURG2FjVT73bmJB7hyqXpt6BKl/X1Nnyk66JnVpVnco5MAc1t5+g2WeArl27HiYifQCO2d/k5waT1jJhuMCbVvlnVsg1VOFL/W03dN13H8yhXaum+XXhcuWnSR5vfO6xYo1PmImzLBfdGeXWS4L87uBN83q3by389iAXoFSVuxF+nxktvHRVjFnz/d/99xTvqrMDh2SeL/BlwpFLQ1Gb8PaNv+zHIzbMfg1hYx3XtolWj9/7r6r2DlX/+QVdpMh4EfYvzDedTjzc5dVP4gBYa88HmpUBml0I3KmD+Ufq9xEDHIDJqvZ3KHNUeTuD+FFBxuMTvwObH5ugu3USzjzW5YOHQlx5pouTfKqEB3c8HWPMtE12K8RF9RFUPxLhmUah4ra6luWpP3JzpH3GvjWqnFcQy/uD6+m5CVdmKXIW6Zl2qqIHFQ6c8veCmHNAdWHFxJT0j+9b+F6RGuAPQCeBuoF9nAdJCxOn77zzzrk0I5qVAXbccce8irAcAeA4sFdXc7WoXC1iHsbXs1Mzzg/AuGTIVYf1XO7XYIHlpAM5CLhw3vEBHr0+SE7Qf+eehTufjRGLb+RVhbHAQypyCiLXkbbyobAYYXRB3rr2AkHflID2NoZodbBupsKdpH0FUYFbCnH7K3ZNeFzJB1bsV6Q1h/n4KvDBJG0lKjrCw+v7mz9NuT4vJOOTxxXn5+c3a+RUszJAQUHB8ZGYugCOYXy7NnRX0a9JR9lOA30l+fdBGadWkUHIJDYkqJcCc/CFqXVsBvv3dbj6nPTqtmKN8sVPv1rjoVbQN1EsftZwRqg4UWC+QD7KgSLp9xaLa5WqHJdQGaox864qb5NOPAU/bGzvSCTyaDWJuwzOdOCk1D3xYxV3wM9LFN8ZJhcU7TNlkCW0Jjxu7wevOCuwd8ZrOf7XHmRT0NxLwHGpH6cNcrsJcrl/Dy0HhqmyMin1p6bN1cA8fCdKZlDm2qRhKAu+x00/A23LuokhWTjlaDdLE/jvz4kNHT4ZGKvIGcB+jfZFk//vThNRSl/8ZF8RsSc5wrhGiadhQS8vnNf9cMQcEMrJKcVnrBBplVTxfSK5AIL8WwL0Kuw/6bXq8X0vdEmUgg4+YqBxTUrVVH5HMwrvzckAxggNPv19epoiIKHIU2CeFbgsFUWTJO73+F99F9Lx/qvxDUL52igiuD6i7wgsAPldcs38VZx0RHoWmD63yQmlGpieHMPhNP0+QjRSHyMxKlO/jzvYuQTkoqxzRT52E9pbrZlcvfvs0Sgvkh2prPgGrwJICn4qxxUOmHSWJugRHl8yDuQ5/OWxum0rrm7TypQlz92xR48emSlvW4RmY4Bu3br1tZpOzui8o3yvyp9B9we9KekqVRUdoX7EzMGQoR7CSHw/QA+amNZzQ+b3wCGNt28IvbukH6+6VtFsHqjFJ0RvNt76GBW4rWyxTkptcJyssa4U4XQ3bv/quTyA0R8aqX4ppAZmBR6rz/V6e+JMqxpX8jYqoxoEZeV9kPNEOf2kw52uGecfvJHj/VU0GwMYYxqybAIuNbt2MmNFeDH1MAITUJ4TlRIyTLAqOgL0G3xXcMptilomZd1ANI9NRNtGaqPNZoB8NtIwlMSPIpwFHNhnDzm80T5Fecl16Y/Sw3NldiPpvylMVfTAatybQvXudS6JWUltQ4CFiFyMEAYdjsgB/XuZhtGr6v7rv+ymodnsAJmD2mNnEwCuSf65EuRFRfdDuDh9hkwRdBQqJ5ORqQusFJG74p7uCmQIP5uMxOoKVZLLS2G+YDZv5awWGAJ0UOUtGqWnRWJUGDWnqbFtEgl+JFsAbAoRgXsKchNDwvWBUwpIvEda4EwIPGWhSlSHkZ6ZZuzQOnAFRL/C/2j32qwnaQLNxgCOob+XVLc772RCQExU/6UikUaZt2sUnhbVEhWuyLhEDNVHVcwoVIcGA/TcguHMA1pPK7MNYV59u5m0KWZjIfI5lokqehXr5B76GD3Z+8CeobegHNrU/iyofAf2Ys9xCqsj7khBM+ICGC2iX6iacyUdah5TlfuKWtXc13tAWbSkb/fl9RF2EqEP/kyxxdlEzbUEGDHSIJiEAsxR5S8qchS+/p+L7wp+XOBRgSsR0uqM8okVe6CKKRD0Y9hs4pcm9fhdVWn90bdp1S9ZXGJjsQrlWZSdEL2ZRsSvi7A29fvwAc6fGkn/TaFSRC5xxDkD5AZj7S8ZcQGVvqBMvarc3pBnoPqzWPYpHjjp9uq1+buFx5V8emBfZyd/F/k9evTo1PStNg3NMgN06dJl50RCG6bGQIBVIrxMksEEvgR5QdX+vVFG7gwLfzdojlHzEehObB5WA98CA1EGArz1RYLShf6UlBOC3x+6UYZGReV7RK2/XK3zgdUL3L96rZ5ISiWUX1HJlPc9V651PD3dIzEbSQucAl+pUi2iF5GmRbXCP4oGTHmyYnz/wvC4kqHAFUBwh3ZZt9oRWLYxD7UhNAsDBIPBna1Nm1t7d5GUkWeOKncpsoeIvo5IStevAB5wrfdmwnHuAdncgIe4wgeiuMnMGwH4boLl8bfSpr8/nxigddGvzv+rEMpA9yXbSZXCD6q8jXDpbjtK72lzf3VsK0T1CjVEHU9GAKlpvcHer3AwQoYpWT/zjHN5q34TF4fH9T3HlcQQ0lFK80sX6pf4QTTgy03j2EI0CwNYa7NMo7khqQNuVdHpgjwOmlJhEoo+KwRuQxLHJ4wzGc0Kx954iHwuqqOByxH/JUViyuv/SfDccI+UPHJAieH8E7K+fg9/ZkpxhAXWAsHsWL0GVOK7rvsgPL4RI1OFZ0TldWv0dlE5OjMuANXJKtIW396fwipVvbp44JR/V0/Y69Dw+JIPRBp8JglUH66RwO1zl0bOS99EG5fG2Sw0lwyQ6RBh+DfedaB7icpnJCN/VPlaVPsp9iHVxFtJ48jmEH92MhrHU7hDlY5zlyivfJLgpKujPP1uoqGq5xEDHR78ezBVXwhgCX74eeZ0oPhrfFMvdKT6NQKuUBi0EWObhcofUDxEv/WJ34AVIIuSdoHd05v1FbxoL+s4P4XHlbyj1oxKq84y3lP2LZzf46ZC8c659hw3FTGMiGyyWtwUmmUGUNUcyRCxz/qtey9IMr9P5gKDi2pafVpdVPl3R+V2lYb4ecW3CubyK8x45o1RdRyW5eeI13UXeTIaxw3XwtKVlvKq7LW6IE8YfJ7LcYe4Kcl/Hr7Vrw/reh2bEg5WCUxW6Cfrkf4bIQYyDLQc0Rcl22ScwK9Z0BY00xo4z6pcGgnqT7mEbnCsHUxaU6oFbiuobvVoTX7VQeEupeNE2Ts3lH7HqtosXsHmmgGyLHciWoz/wm8sLK7p7akurCms+AXVIRnJE6vwhbf8jRlHLKbzCvIozs3RXktXW3dNpSUWt+TlQG4ju2FNnfLlzx4Ll2sl8KGgLr6z5dckQQXKBI0ks4J/lfjVtSxRkRtATwCGsq6/wCS3pYRkD3ioLqB9xdAhLy6zMvID/FoEnu7lOTK8urDiTTX2W/HtIYlVFek1X0SapYL5VgkJW7RCv3Vwz8qLBSurq7jDEa7V9L3WACvwp8GUvT8lQa6XEd4blrNr+9bSOOpvJZDjWYonzba8/WWCb8b47+XnyZbzZkfzh14TPGnfPk1etpJsJ1QCtAqkq26CryWe0DpRfXgDh2TefLI15i+SUMmL6Vd+GHkDVqtwTZ2rH+QiNxpPryU9I8wQWJIbTBfCtNY2S+h8s8wAIpLluRv2auwVS6JndbBuCr4HzMV3/HyL/+L70EB8LRffF5A5lgU1dXpW9j2yLHAr8J04rYBix0D/PQ1Drg5yx6WBicGAn1dQF9HAtQ9FKVuctUSswnc4NfZAuhvrZKquY2Xqd5ti2RjHTD1wk2u94421fxWjo7PVYXlVjOkNonlxmS1+4Um/TpJv12inMKiyRhs+WBGpb3yTzUFzLQFZpVBP/03gUoWvSYV+q3wnvrPnENLh4CuB+SCtMpaFWlH5pwR0v5zAupY1gTrfd0AU34mTOfnPEeSvxx3qLnv2llAoFRBSH4HbnophlXqBr/Bljh5kE39jsVrgv7nBTfIhfCuq+wIkjDOddH4A+HLAILU8oZ73kai+TtosvgC/otlAfK9gzZKVujbjus2SPt5cQmB5phAYCjb41GcAPyN6rKZz/qrwv8AupKVhRXnDDXBjwrP7aFzGuQF2ybxHLC4jgZioDCJbig8D9wJxRe8HCvt0NVx5lsuQl31bwOwFlk++jU858YjAUWwe0yt+AIqrMMjduLdWCXqdiKxVzIcZlUQgqdpZsc8YMbcgci5IymhWp778tFvGc64GNUtW2YYZylq7YjOeYx001xKwOPPvlWs0JqqPCCzFzwDeEbB+uRQpA/YlLWCNUdEDjecNjscZhsrHQjbxAVyXPuqXa8vU318QOAnhBCDTecIfj3bo1E4a1smJs9lvM583ii+sdmNj8xeF4RZOV5Uz/ORQzTACMQFjDkVkrcGZmAyQSY3LU39WS2VHW3yNoD1I21nzsxzaSzbjWdZBszBAIBDIYoDp87QckYuTkjTAaJD3jXBARum1Zap6fmH/yQcIpqd1nRkinJ66hh89lDFQ0Uxbww8Yc7CILlb4vAkDzkrHcPNhA9yGBg4z5m12vYkg/hS8MZLhMtCLVHWlgf9klpFJBsEMRvU+rH0duI914xAcsjUVQ1JWWrxCf6kIa2oMa8rKylZv5vNkoVmWgOnTp6/t3r37KpIBnuFa28kv86WLrMonIhwBekqSfSMgD0dy4/cG66VjeFzJf0U0s95OFHgy7tk4vgDZAL/Qs1yvniwG+5wivclGDOQxVV0owu2/O9i0fesLf0dTuQMbiY0hvCK8JMoCRYZIIwOXwJeq+i9FrsR3kG0KKkCvP/X66GogVV52xiZeY71ozpCwKakf1bUwf5m+AOZHES4nlRWsvG897VVY3erWnEjgMgdnSqNiSx+qyIUgRwddk0X8ymqGEWAgykEY/Z7M+js+PrVwvKB7ifA4SNsd26dpF2ia1evZwkzk+gjlKnovyv7JSOBM4q9W9GqLzkVkeKNn/VUovGNsopenMn7Q/ubJhu2qE7ZkzJloNjuAiExS1QbT54Il3qm77yhJaVmmCHp14cDJIyvGlvSrKax4D2WfjG9ymgi3WcuRgr5KE4y5pkImdYvrWIVds/foTFW9FuP0MKrvZ8YSZq6YjZJKYvhSdie2MBk1EqNKVP7ReLsg/7boHEFuYxNN3oIuspjLTcCOtXHnbqNcOGGWNrwTY8yPWzLmTDTbDOB53neZf5cu0iJgjcBlhfO67VMQyxsdHtt3iCOMSadja7mI/E2Eu1R5PFmEyQCoZWLm9bruqq8pWYmlFYpeZeEcEXN70hiTFUi6ZGWaA/ZMRQirjgNm4heE2iziR2OEU79bF60jGM4DGapoifi1hDeF+J4gj9qY10/QnhqXUpCLZi9Qk8p4ghbKANba70TSlb1G/OIttkHbvXDA5Kdru84+vDpYPzWZaOECCRGeMMY5SmFQMpY+pSauRLnwwvtXry/w0VPkKddlL5D2BhmNr1Wsgx8npa2lB/dzFwPvIrIH6d5Am4p6YHqjQNAUEqAfqTIfdDC/XluoMSarlQNUdIQE3Z/xzcrFgP1mjNfg284NSenMmTOXr/cqm4hmY4B58+ZVqTIm9ff8pdr+81Gx3PDYkhetla9SqpDAV0a8/la1zFr7Q0YtnhiqD8YTOd2t1ZHP39DuoyZu843B9hOx/04kGJG0mDWZFF5dC++N8BmgbTGVh/Q3i4FT2TwPZEqKrwcn2TsNAAAbr0lEQVR6u+syQJkqo0CO3dR1PnnNGw32XGP0LpRPyOh04lk1n/2YaHhGVR2+OeNfH5o1MaTR4HJa5QanIfwJX5IuQ/XEhHKDteaFZOEEv0ysyMcqTu/C+T1ucp3IhcaRqWvDZLpSWbBCLkzgnuxhLkdlFBsIG/Ms3PpUVCur/SXg+j8F813TpK9/45/Nt1aukxhSH2UNaOsk4TfJuqiiI6wxhwrSyWLGJ+0cWfhxkrJiTXopq4vYdzdj+OtFszKAtfZtMqIffprstQbCqNygscR+iBzmCGMyYuVnWJVBRf0nnegQy6vuUvqTCA8B+cvXZKtt4qnnkpieWVamKaytUi6+K1r+/QQrACcf5XLUvs7GVNdI4FvgNgm5IdptrA8hA2sQ/myU9421nyt6FU3PZPrm54mGlKaAS2lZWdnEJo7bbDSrN3Du3LmL99yzx2jP871cn//o1V55qvYM5oX2kaA7gXTI9FqF24uqWz8FC9yq8X3vtirXk34JWhG2X0K6PUwwqC8vTVq/HQP5uT4PVNcp0ZiycLkyeopX9dG3nhtP+KnWx+zvcP0FG1VZpQxfgMwKtKypU2rqlNqIUFOnBFwwItRmuGHCtbB0VdM2hlBwHe0DhNcEPlWVfyj03dCgFi5XO36G10CjVoXy+sY8zKag2QtEdOvW7SwRaahkMWxw6JvD9jEpN2ZClWfERm8r2m9WeXh830NQeY7sPL/Rqlx15KXVs+vq3JWet+kFo0IBuOQUl7OPczOjgZrCPHxz9QCSrtfqWhjySowxU9cNNNlUOEa49jyX0wa5APNEGaIwCOHkjTn/zmdifDzKl2NEqBExnWfNmlW+RYNqhGavDxAMBt+DtBn3hwnekZAOCSseOPlvCSc/ER5f8nRyLU8Rf6kK5xb2n3ygilf+zdOFw4dcHQzt0HbjeNQYtOfuhr/8weXjx3I57/jAhohfJeib+ALYIWSkgAdciMfZYuK7DuzcERSsov8S5BMVHtlY4q9YY/nsBy9jEDKkuYkPW6lETI8ePW5R1TsBcoLYtx7MObvXsVPeAgiP3ftE/DKxKbdnvcKw+oDe33Ftm2h1UeXfRfX2lItYFeYvtdTUg+dBbsgvwRJwGL9sNTfUx7Rvry7yj7wcabsea18mrMC/FU2AnM0GlsAVayzGCMZANJm4Hosr0Vj6ldVGLJnt5kMBIScoFOTBDu2EgCPjVfQ7lNPZtAqotbc8GYt8/qPXFqAwX2I1dbSbPXv2Jssov4atwgCdO3dulZMTXGStb2hR1UsnvhH8yJrA42S1aZX3PIfrWvebtKBibEk/V3i+Uc2+OD6RMse5VIUb1dqfHDFPbWSwpp+VI/YTMJc2cs1uDdSo8h8j0rVR36GNwYqlq6w59bpoh1RRiwP6uo+98t6MrdJSZqvUCVywYEGltTyU+ruowNyeEHdGivgKk8Saw4sGTDq1VX3uyvC4kvuzLYREkjUFhDTxIyp6TwK3tygdHTFTGxE/gR9v1xgLBS5DdB7IkCaIX4u/FDQLFCahMkGE0zaR+An8WImOzw5PNBDfGC2bNj93cHONrzG2Ws+gUCg0JhgMngcUx+IU7NnFyd2tk6wWkWsK53W/LDTo6/nV40qOiDrxz/B78vlVNH2J3IC0o4FB5T3PkRPdhMwzosPxo2pS4r0FVkij3kACdQJ3g3wI3IOfUp05k0SS9yogu6/g5qIKmCPQFaEbmz67GiCndKGVIS/FG3RpVTln2rRps5thfOu96VbBsmXL6kSkgXOHvBxbVVFvexT2n/RsZbc5heFxez+XFTbml32Zkvw75fufLCpHFMZyz3M8vdQaHdvoq5oHMh/olBFWpoK+aUWPUmUA6MusWwP4F/yopJ5sWop4U1B84oOftbtJre4awXvkjXg8lcber6dZUVpa+vmWDW/D2KrFomfPnv2O68hHACvWaIdBf4kdVT227x8dT2eA/gX/K1mWjPNrQ0OdHFaLcmnhvO79MdY0Ci4FX3X7AWiXNaX7jp5DwfwoKl9mJaD6mAa8i0/4zfUHNIbi2+y3uM/R2BmejJnmF6AMBtDDB7oXbek1fw1brQp1CmLcS/HiBwNt27fmpZgnBUlpPYLyGeiuQkMGTRzhCc/InaY+bqp3L30OlQvIKCit6Fcge5BdJWMFws1iZYwKzyiaWYAKfK/kvxUG4vsDmhPN8hFZC4+8nmi4llXuuOyWaZ82x7U3hK3eMGL69OkrgL8CrFqrBf/+IgHoZ4J8gPD7BrOwyOdg+xb1n3yNa/U3EnRnZPgRFPhUkc9AjiNdXi0KPIAX7SPKLmoYT3b1sbjC0wJvKlxMdufwFoUvfvKYvaDBmVpWVxd7YEPHNxe2ihrYFA7ar8fXqyv0yIBL7P1hoZWd2ptU4OdsVbmmeOCkz+rG9NklYZx/Ab9PD1DGK4wU7GmN4gE+tHiDRUx78a2JfTLvJ/CligxH7d9B9tz6T7j5iMepOOayiK2p07YA1trflJWV/Xdb3HubdQ1bXaGnG2F1PEHw3hfju6hSCVxbiLtX0YBJX1SNLflbMm4+RfyVqnKHCktBB2cQf5pRc0wkN3Gug3OlqPxINvFLVeQcC/NRfbqlEx9h+P0vx8amiA+8s62I799+G6JXrx4nJhL6IUCH1gz+4ZfSYdVjSnqr6HMZmTIx4AkRDavKYBpUNC0XMbcVhFs9Ey6oHGTEPtVoRqgCvVtEFqvyENuv99BGQdBFKjK8ppZBJ18b6b22SskJ4UWi7FZaWrp0W41jm80AADNmzP4I+DfAqgpu/+KFvkPVMD5FfBUdoSJ/RjjEL5dCAZBAeVaMs6eNxv9dXVDxpIj+J4P4FuE1Y+VwkH2ThZxaMvEtIp8rMgHl76//J957bcrvIHrbtiQ+bGMGADDGXIGf21fw6BuxayNRQsAMUT3VqMwU1VdSZV4EvhLL3kUDJ19iPe9YCTql2ZXG+N6K3VdUf7ZGv2XzJPwtLrS0CShTZSSqRwInVYSV1/6TSEl+8+vqdOg2HAuwHRgg6dG6DGDuEsufb4tOUE/vVpFH1a+F45CMHiocMHmQp1pXPa7kSxF5JRV4IegiEU4XYy41ah5V5F9suh5eA+ngzq2MCH4sf3EycigE1N/xTGxkNNZAg5vKysq2VbOsBmxzBgAoLS39EPgIoHSR3eeZ97038aftMCo3FOYmehfO7/GfqrElfzeONNj8k+bd2xKOKbFWeqm1E8hW+zYGUfzM4ji+FXBry0HVoLX4QaIpC+fIMVPjv/lxku0PICI/l5aWvrOVx9EktrohaH1wHOc6td5xVnGf/yCO4+j3l5wkpxXsO31Fzfg+fe0epc9LcikAVJC3nIS9PuFKZ8ezPyGbJd2PFgjq5ncJ21RYoIB0hcJKgZssGpw4W75U9eMQVPV6tu1S1IBtqgU0Rs+e3R+3lr8l/6zdo6Pd9+2HCs5G9DpSzh7Vcai5KmGc6Q6J+8U36GzqzDVdlWki/IamawFtfSjvK/qRiNwQjdPr91dEqAgrRvhp1uzSTZ3Fmg3bZQlIIRZLPIg/FQPkd+jojk4WZgwAaxS9unB+j/1xbFuHxNRkQOimjLlC4HFE1yQTT7cH8VeA3ozg+XIMvb4Z42lF2P/gPav3bYcxNWC7zgAA3bt3fw04B8AYeH9YTmznjvJwNBK5Jy8vr9Cz9gmyS6pF8cOvNzT2BMILohJR9FK2QSPKJqAK74pSiXAB6ZDxGUdeVB8L17K3qk6bM2dOX7bT9A/beQYAcBzngYaEfwtX3B8ZVth/8s05OaFzPGtnkCZ+NX59ocYRQlkQ+EpE/opySDLcensQfx7KGwKHJtXWIJBA5d43PosPC9f6RbBFZCjbkfjQAhhg5syZ0xQafN4VNRxcPb7kuwzVLgrMwo+Yacf6g1jKVDnPwlxVfYpNT81qDiSAH/Hb451DskmEwiSQU1W06+oKXgBwjNTW1dVtF8k/E9tNC8iEiAxX1WMB8kLSELkjMCFZMaNxKngmwojcrdYuSX5R28sKuAYoBw4kPUNFgYcFUdA3BXJHjU9Frdn3lixZ0myhaJuLFsEAwNjUj9UVKpEos3NDLFRfx19fhI0FXrJinzIqt4jIidtkpE2jHt+mkK4rKIzFyleInge6M/j9DRev8Gf8hEezpnhtLrb7EgAQjUZLJVkrUBWqatQkjT/5+FpC4/ouP6iV/VWZ5Hfm3q7EBz+vICXk1Su8g2KTGk1D97FR4/wsLyPqBYPBUdt+mOuiRcwACxYsiHTv3n0+yYradRHtBhLHrypeTNImoLDYqF4votOtMc/S8gI8yoCVAqfQxMf18xSfj4NBGTtl6vSaxvu3B1rEDAAgkm7CUBFmKX5lrg5ASKBOVe4gltjbGvpYzHhaFvHj+HGKnfCXrXXeqyrxqWUaBYhEabYCD1uKFjED+JC6lEYUi9MRf2yqwtuu512Pcbpq0B2N0m27DrNpGLL7HjWCzF24zC6JRPUwABFp1gzfLUGLYQBrbSRVbNKz6vqhYHo10cSMRMAdip8LsN0NV+vB+lTTBLAEtHjhCpuuFSgyf9sM69fRYpYAY0xD69gJM7wnC/pP2ldVd5GgOzMjOPR/DRa/M2i7soXpklWq2mwlXrYULYYBrE139ftxqk6tHl8yXETeZPObS7cEpDSD6i9HJ75NbYzH42ubPnzbo8UwgIg0qHpn/8Z5lHSD5f9pKExScfZZsEwbKqrn5uY2S63/5kCLYQBVbSiFUllDCN+KtsGOz5uA5rrOpkF4sSiWd6DxdKduu5rDU5sdx9mu9v9MtBghkIzwrNUVWouv+2/p+CpALcg6xZ22MuoR/uoZGVkdrH8V9BQn41Orq6trjZ+VvN3RYmYAEUklWFJdRz7++hlj3ZTv6ia2NUYNfkt4ScYRpgTIWrawNOxGYA5Wjlali+PpzFRKvJcxYtd1Gyerbje0pBlgTerHgqXWJv8uJq1ircafyndg/RqBAqMUilOdt5KoBxbi6+pb0z38gYh8rUbfkUZ2gfpoetZX1S3NSG42tBgGUNVZKTvArAVWIjHtkOz6UQmyCLQzjdrTNbrAOBEzR9HjJTvf/0eFfFm3EXVT1Uc2F3FV3hehs6o+0dQBkVj6t+d5zdLtoznQYpYAa+0PJE2B8QQycqz1gO/xQ6r64nvbEsmKnZlC1FLgIREjip5JkvgKk5KFoPo0In49fnWwBJtH/Ar8+ITUpO6BLBLhNGjolJKFhAfllf6QAy61ZWVls5o6bnugxTDA3LlzV7Utlumpv59/P1HrWd2fZEVQhcVATbIQhOAHXTys6EfAlRmFI1aBDBWoVeQssvMFfgSZg9/5Y1P77nkIr6H8khxTamlykjUK1stMcxbahk6mXXY0I/l1GWabYauViNkc5BW0XQicDVBVo6GgK06/nmYhsEyyiCbvifIv4EJBBuEzckyQJxDG4yeYNFTx9mcD+S9+Sbjd2HSMFOEmlDOQTS85+9YXCSaXWnJCUr222h20evXqFuEJhBbGAOXl5XP26tHugOo6v2zMuBkWVQL9ejo7Gb9L92RBrkR1D4SbSRd+/lSRu0HPBv5IWrZZhcqjQBsR/kDTTaE3hPmiepEYmajK82T49jcWC5crdz8XQ5VoJGoPmT179pxNvcbWRItiAIC2HTq/XZATO6A+6n/BE2ba4Ne/2MSchfb1nTqYz1sX6xBE9gdDPLTPQsX9m9FwQOABkqVePWeHuA11f8N4y/4DDBahJwiJ4F6IrUOIrXPfRKAniEW0HqAG0Tviidw/O473Z4UHPXfXkEoBRtct1aemEC/QDeOl2/jU1isjx1pueTJGMCDzq2rsYWVlZVPWOXk7o0U6WPbaa6/WHTq0Gr148cqspoyOEfJyFVVHLSE1xjFoXIVI8jkET4PWmIDfgk1r8eVFB5UQPr8nfCKr/5+IEX+fC3gk4nWxaFTrEcjLkXxjxPX3BwBFtPHsHUTFj1L3mcc3OtbVS0MT6906777Wddy3Fy1acP306S0jECSFFscA511wwQ1TJk26W8E94aSTKSnpR2LtF892Lvzu4qr6YhsOnbrCzevWKRqLSiwWI6fuE9zYFFZF9g4ncg4IinFzABxvKcG6L4jnHOR/3UkE678hXjVlkRPMzZeC/dvGg31JvYZwxcJfXn753WG/PcTZ++C+wSu8/P0LYzkHgfg+HTc+h5yatwCwga647U/COr6vSjSCs+rheY5WhHJzZKfqWEf9flaviq9GfNemvq7BDVAaCAQOS5bNaRFoUQwwaNDvjlm0aP5/rfW45/6hDNxvf0A+LIqMvCAq+a9Hg/2PRkzDOp5b/RJufE5NTfGNNeoUNXTmdmPTCMSmUZ9/Ekh62Q/V/7c8P/zIyEju8cfXF5wdUpNljxkfXP7Lofn884Z4ziG31BVeLNZNN/t24gsoKr8a67SlrvAS4jnZTUpy6z54Mif8r7YqxWdECi4gkn+cBTErV6zgissvildWVAQAjDFvzZo168zmfnebixbFAD169PhaVY8sKi62737wqREhhsqdiF5MdjUQQpFR6jmdFiYC3TtnbheNIdRaK62zVFwnNmdOTu3b9ZGCc/t6gXUUgYpg4qtjQlWfPREpPH//eDDbZmS8tRSsvYlY3iCi+SeijexnqvXPtF5+SptYwfGn1heeg0pW3cnSd99684vnnvnXlQCu68ZmzJiRy7qBrtsFLYYBevfuHYzH47WAu8suu8ZfePVNf9FtYoyCpyomga7TTbxJCHaNG5ncKp7TzwUQjSVUpAwCPZP3uChUP+LBaM6RrREDajXVyVWIE6z7JhHPPSxmJScPwI3Pwgt08xTHEdExOeGX58Ryjz7bc9dpeArCXJQ9LjjnDJYt9Zt9BgKBTi1lGWgxhqBEItGOpPpWVVUZUD+ARkBjSHYEjeLI+ogvoolg/ddxsTWx9PGmXTynn4taHG/F50jgWAikZpRVwNBo7tGtEYPxVk3GmOEkGU9xieb9xrWSkydeeaywcug8NcWfK44DoEpBfeGfksTXdd286kc6FxSkuuNI/fTp05ul62dzoMUwwOzZs1ek2tCHw2EmThgP8GkkEhuhNruTBzREDWdBhS/WVFQ/WeMepmoKsvr3xOLxaGV17W2hnB1OU+Rx0qVlOwKtEtZLVIarX/JMh4dR/pg+U1DVKMo/rZdTHC4efKfndDo2Y38vwIvHE+MSnm3Swjdp4njK5pQCsOtuu02lBVkCWwwDADaUk/Nq6o9bb75+zedffBbPyQn+LqMzeT3Kvao6ngzHUDyRoLKm+uWly1d1zcsJXRUMuA3E96xNlFdWsXLN2lC4tt6ti+uzZDScUlVbGa5h+cpy17PaWkSfJWPZqa2PsLq88o7OO3e4py6hg0T83L6GQVs7dWV5xWJr7QDXcbKEg6VLl/D8M//i5usHY60lFMqJ5eXm/qWZ3lezoMXIAODr/7FYbISq7gNgjKHnnr3os1dfgjk5y0Z9/c0TRx59zAWtWrfqDlBfX0dZ2VzWrF6tiURcjAjBYADHdckJ5WjC8yQYygGBWCQ2Kx6LzBiw774n5+TkUlhYqCqOeKoEAkEwvLvHbrseV1hYlOe6AYzjUBmutpF4/EY3al7QHG7r0LbNFQHXEQDPs164pnpRTV1k96AjROpqqahYy+JFiyI//fB9aVVVZZ+5ZXNMcikjFArNra+vP62srKzZ2r42B1oUA4AvDMZisT+1at361KrKyoYefHl5+ZU5OTm5wVAwJAhWFWuzBWljDMYIahVPFVQxxmCtXbNq5YpFHTp07NSqdetO1iqe9VBVVLHV4aoVObm5BQX5+UWqimctXsLzKirXzs4JhUynnXbpEgwGg7k5IUCIRmPU1FSr53kSidTjOi7GCNXV1WvWrF61tLCoqF1VZeVO1lpExIrIIbNmzRpNC5H8M9HiGCCFrl27FhljGqKEHnn6JQqLijAiiBiaWm5FBCOCl8UY8lAukRvrCF0qcLvjmDae17B/FSLjk2XbQo5jsJ5FkVLgUUEvVb8EPOAzmKKozZb1HCOvtmlXdNPKldUdHewjleHKQ6+57MLUOatmzZrVYiKAGqPFBIQ0RiAQyPe8dYlsVUGblqFUk19+EoLeKvBLPaFJkqwXkEF8gCKSaenpfVIKuhR4srFI33jGSd7lIRPTIatXVd5lRC5UMF661R+quuTXnnV7osUyQDweX2uMabADlK9ZTWHRBiOp6vDdxQKowBOqMlCFOzdwTmPvoIJ2IaN1ayNklacR5E7Q6oTLbJCGuIPa2tow6UYULSb4oym0JC0gC8miiQ0pVHPLStd3qCfK6ygzSC9pKxQuaaJhxK9BaPqjUBGG4zecEBrKvXKGwoOaHXSy5odvv24o9qyqH2/iGLYpWiwDJPFF6sf3I0fEVBvN/cIoa/RIYFeEARl7OrHhPr51G9iXBRXGqsixqrQB0u1qVI8FbWqmqK2pDp8CEAwGbSKR+KKJY1oMWjQDiMhjJI0mixcuCP743UgHQJAFoKclNHiK8WSYCoc2OrWGposvTQG+YuMCQ5ar6J+Q+HGgdwFHZOwzgIfqFzTqN7xqxfLdxvzsZ3/n5OXdNW/evCpaMFpcQEgmysvLy9u2bWuAwwGmT5lEMJTzavfdOh1rQu4asfoNktX7px74D76RqDBj+2pVvUWEPJDj2bD2EwUZKpHA6U5OfKl67teNI4oF/UbV3CDCuWQYpKLRKA8/cFe4qrIiJCI/BwOBPy9fvrzFqX6ZaLFqYAbMgAH7vh4OV6ZcqF6r1q2fv3voY7/Nzc1LufVUlXeMMFnhn6TNvHERfcJTXjLIy2SXiK1n3cDQDw0MPmjAXnNHTZzRzfHsf9UPR09hngjXeTDTKF+T0Wx61coVSx+485aqyoq1vYAfrbW/Kysr21bFqDcb/wsMAEC3bt0uEJEhJL+43Lw89jvwEPbo1mNecavW1/Xeq+9hwJUNJ4h8Ltb7u8VpJ36vwZQuvhq/Rd0+pBlgmhp79aH7lHwN8P2EaSVY/TLjnBqBe+PVBQ+bwupuBhlBMmt50YIFkeFvvzZx+pTJJQDW2ntVdej2qPy9OfifYQCAHj16FHbYYYcr2rRpd9fsmdNNpl7etn17WrVqQ25ubs3a8tU/LFu6dFEwGAwM3P+gs6PRSLCurk5XLl+2KhyuCgQCgTYAqqpqtSISqV+JnzZWqaqVBxx82DHFrVoV5+bmaThcOWHSuHFfVlSUhwGOPf7Ea+rrIx1WrVzO3Dml0Uh9fQiYoqqvu677+syZM1tM7v/G4H+KAVL4cfLkDsPuuCM4derUPUWk+8677Hp0hx06HbZqxYpFS5csKgOiqrpWRCqPO/GPJxUVF9dNmzLh6SkTJy7u2mPPDgcdesTta9esnjfq66++rKqqcIGQiBSoarGI5O++R7cDUG21auXKebW11ZnTeGL3Lt06d+i0Q+6q5cs/nT+v7DNjzC9bo6v3/+H/sE3w/wEY8SdzZYquXgAAAABJRU5ErkJggg==;" vertex="1" parent="1">
          <mxGeometry x="780" y="-808" width="40" height="40" as="geometry" />
        </mxCell>
        <mxCell id="sIMiyn0A-wrYiBe2mgz4-54" value="" style="shape=image;verticalLabelPosition=bottom;labelBackgroundColor=default;verticalAlign=top;aspect=fixed;imageAspect=0;image=data:image/png,iVBORw0KGgoAAAANSUhEUgAAAIAAAACACAYAAADDPmHLAAAACXBIWXMAAAOwAAADsAEnxA+tAAAAGXRFWHRTb2Z0d2FyZQB3d3cuaW5rc2NhcGUub3Jnm+48GgAAFs9JREFUeJztnXl8VdW1x793SnIzkDCFWaKAIKBiqj4UhwqoiKK1SrXaatW+Wm376oBoJ1q1VaRSxVZfrR9HsOXZ1ypaqxVBtA4V6tAKlDLJTAIJSQhJSHLv3e+PlRPOPvfcKffcgef5fT7n88nN3mevdfbZZ++117TBhQsXLly4cOHChQsXLly4cOHChQsXLly4cOHChQsX/z/hyTUDKcALTAcuBkYDZcAe4G1gIbA5d6wljXLgK8AU4EigE9gGvAIsBlpyx1p+4zjgQ0DFuELAA0BRrhhMAtcCjcR+ht3AzJxxl8c4A2gmdseZr+VAMDdsxsU9JMd/BLg1RzzmJQYDezF1krfQqyomVaje5/ZWhVWFdp34aM64tcflWHgsLeutxh53uho5eqIqCpZZ+Q8D07LFXL7LAI8BXzd+9Jnch7GPjKVwYCFKKRrrG6l/pZ4d399BuDlsVFNANfBxDvi1ogjYCAwB8Hg8TLvoRqZOuwafP0AoHKa2di9/ff1J/vbWYvN9/wbGIYMho/BlmkAaKEaEuwBA6fhSqpdUE6gIANKZPp8PNVARHBuk8aVG4z4P0nF/zgHPVlyIaQBPnX4d0y+6Ea9Xut3r9QIehlZNoKV5HzU71xtV+wErgC2ZZtCfaQJpYCIyCACourkKb5FXq1BQWIDP56N0UinF1cW0fthqFF0PXJE1TmOjWygNBAqZet51URWCRYW0tbVz2pSr+XjVn1BKGUWTgTcyzWA+D4DB5h+9qnvZVvL6vITDYYqP1QaAH+idWfZSQ+XAKoqCJVH/9/lkNigt60uv8kqaGmuNoqHZ4MubuErO0G7+EW6zXw4V8sVE2iKZ5ygNdHS02f7f4B+go/Ogucj+BoeRzzPAJvOPur/UUTq2NKpSuDOMCima3242/3sH+SEDHIcsZdTt2c6emi1UDqzSKoQ6QwDs3L6WtpYmc5H2/JlCPg+Aj5AXORRg64NbqbygkuJR3WIBrS2tKKXY8/AeOnd1mu8tA/4FPIxo23KFU4B3AZRS/H7RT7n+pkfw+wu6K7S2tdPZ2c7SFx+y3vtSNhjM510AiDR/HkCkPULtH2rxl/sJDg+CH/au3Muu+3ZR/9t6631FyF56JqIi3phVrg9hB3A2cATAvrpdrFvzHn37D6Wi9wBaWltZ84+3WbL4Lmp3ayy+ADySA37zDgXAX7HTmnmS0qwZ18uI/SAXGAvst/Lk8Xhi8VoLDM8Nq/mJ/sB7JPei3wBuARpsyjqA+YhBJtu4PQa/dtc3csBf3qMImAM0Eb/zOoHxyKB5FDES2X1h3yB7y18hsgQlOwD+kUXeMqYKLkPWvhGIMmcnYqhJ12QbRBQkY5B9/m6ksxaY6rzeRRtgAvAgcKZNWx8D3wXeSpOnRLgDuNf0+0ngTaAKeeGbgRnAl0x1bgT+O8N8ZQTlyDTbRmxrXXUG6C610PmCpXwm8GkMnp4jc2vuIPT1vw7oY1NvMLrFcy95pshKBkciW69EU9xBxCnCSYxDpn+DxkZk6jUjCPwQOGDDUytwFxCtqksPT1ro3Bin7vcsdR90mJeMohewluTXuU4OTdNO4ZcWGrfHqDcEWITY3q18bQeuxJml8SRkG2u0/U/i612KEOWPWWg9xgE+soJ5mDoy2P8IVX3rQjV9cYM6Z3G7OmrWu6ps/PnWzv6U6K80HfQB6k3t7wcGxql/CrAS+wH6LvICewpPVxvmNqckcd8XLfe8mgYPWUMJ4ssmL7/fMHXOU9vVhUtC3depT3WqsQvaVcXEq60d/VWHefm2pf0nEtT3Al8DdhE9CMLIFD6oB3xcaWnrjyncu8xy7wU9oJ80nDAGTcZktj3mK3dT1Fvvs4oywONh4MX34y3SrHozHKBvxq+BNabfVwMnxqkfAZ5ClERz0Q1QxuD4NyLJJztblXS1ZaAdmJXkvQA3oTuCzEcUYhmBEwNghPlH5UnToyr4/R78Pg/eYDnFI04zF410gL4ZIaQDDXiRLWKiNb0ZEcLGAc9bysqQbdwaoncXdrgd3ZT7AKltfz8BfmP6fTTwnRTuTwlODADty/AXFNtW8nS9Aq9e7qQMYOB1YInp96nAl5O8dxOyDk8FVlvKRiCD43VE2WSHKvSvfTfiEJoq5iDaTAM/Aip70E5CODEAdpl/NGz8e1SFiIJQWIFStG3Tync4QN8Os9Cn8/tIbYu3DDgB+BYiWJoxBbFUPgz0tZTNQ/dK/h4yu6SKOuBO0+9y4Gc9aCchnBgAbyDCCgDrF9+NUrpzxoEWhVLQ+P4zdNZvMRctd4C+HTaiaweHArNTbCOEWOSORraYIVOZH9nTr0emZz+ibTT79a9CfBp7ikcQvYqBa5FBmZd4GZPkOuT0y9S0RbXqwiUhdcHzIXX8w+1q8JcfVZ5AkVX5kkm3pzJkCjbTS0fjNxZ4jejdgkLkA7MeJIJsM9PFuRY6b5GnntzjMG0FAeUrLFb9jp+iyo+foQK9h9l12g+zwNc1Fpr/40CbFyJffjxF1yIH6Bh4ydL2ZQ627Si+iKy7yWgC/0R2/BG9yFRs/jLPcKDdAuA2YlsnH0O0o07gaPR+3Up+Rj8BcDqyb040AP5Fl79/FjAJXe37Ic4NvgHIts3uGWuA6xyi9XNL23McaDNjCCDC0EJEHfoJEv36JvpD3JxFnp610P56/OpJYzSJZ72/A6fFaiBJlCMDymizBRiWZptZRyW6p04D4riRDQxDl1FqccYzSBN+kZ3HNqIHQQT4Hem9tK9b2vxtGm3lDLegP8Svs0h7joX2z9Ns72xLe28jEnoQ0QbaRTS3ImriaP/2xLCTZ05P6wlygACwDt3g8rks0Q6iO4W003NHUT+iKYz3HEOAZ7A3O+8AriL1Ld2pZE6eyRqmY//lZAOXWWj31Pc+lZnsZGI7tb5P6vqCxZY2rk3x/rzAn9Ef4tIs0l5hoX1eivf3R5dlmojvdwAywK9CV0yZp/JnkmjDwFB0ryan5JmsYiS69LwNk0k5w5iA7i2c6pb01+gvMJXdTAnwE8QtzjoQDnSVJZPm5ieWe+fGrZ2n+AX6Q2RDM2jgMQvt7yZ53/Hog2cDPbPVj0ScUe2WhQ0kzhUURHIHmOWZo3vAR07RC31KbKErhCoLqERP2LQPScqQCG+gv6xo54fUMBnxFbQbCMuAY+Pce4Wl/gtp8pITXI/+EOlYz1LFLAvtRLF4My31X3OIDz8SqLKH6EHQiQS42OlLPIhxyFz/XId4yhq8iKbMLBClqzVLFgXoW9IQMsXboQh9C9mJGMCcRG9EkWR2bzfPUN8l2qv4BHTP47VkT8XuGKy6+r+Tvb3tBegdHcs/4YeWevMzyNMYondJZoHVumt53FLn26kQi7X/LkXWt0mIwaMN0em/SGZCrX+PvhVcgIR8DUCkY4N2JpImvIo+dc5Dnr8/IpesRbSIhvZuLyJwNZJZXIxoK0fYlL2ALGGbkO3jesT/AWS2mIu4rRUiNoR3EHvMgUREPYgblJabz3SFER200zr8KmKHk5lpLyI5YS0VHIMEYcSjbb6ud5h+PBQiHslR4eXIVnIu8uJnJ8H3XuCGeMS8wNNJNKSQLYjdyOwpfCQfAv4pcJSDtANIRG4ytDvI3k7FjEFIjIJ5vTeuXcggsVM5211PEmOJ/am1sq8gqIoHj1H+skq7htbiXCzdvVG0C4vj0V7jIG1rSJkqKQyoYwaWq34lBXa0PySDfvoJcBLREUe2V2HFAFU0cIzyBIJ25XdaGx6FaRr0+gJq7NfmqvOf2y+RPU93quHfWaoKKkdZG/qxAw81BpNyxesvUOOumXeI9lMdavh3XlMF/Udaaf/IAdrVmL6cYIFf/erac1XbwtlKLf6+ivzqq+rVa05UwyuiOjGX+Xw9SOTRdmxefOmQ0WrSz5Z3+2Met6BJDbjwHuXxBcz12umawQ0hcD5i4ACg+uanGfr5K7spqghs2RWhvbGWzfNOJtS02yjag4Q2p5PS9CFMgQ/Vty5k6BmH3PhVBLbsjNDeWCO099cYRbWIxS0d2k8gfoMAvHjbTGZ8btSh0nAYdq5mW30LJ/zyHfa1dueb2oIsQyoN2umiBNmd3GH8o6jvEM58YBWF5YdCCA60KGrqFE0rF7FzkWY3uh+4zdhXdkvBFSOqtZcP4PFCWamHcHgA/abeRs0fusdKJeLpk05Ou+7QrYpRJ2ovv5t2iYdwZCB9p9xK7fO3GUUDHKA90fhj8rgq/eUD+HxQUsER4TA3TapiztINRkkVohXMZQYysNhPRl0yW3v5ACUlHnwNivKTv0L9ioc4uKM7hfK5mAZAt2DT99jP21Iq7KpZMiqqfFJPOLdDv/H2tAu6VtySozNH+8yxMWS7gPhfnnVUVF6HM52i7RTs+s8DFASgLQwlo840D4AqsJMGVe5mNZXTGfWzCWMG2EaXarNu9Qrbiu1dk13Lhqjyd0h/CagAqP/EnnaHQXu947Qn0qXgWbF2K3MusdFCd0j61jc277OWvEl+LAGnGj/qVq+gbLiuoVbE7L8tcGgAvErXAGja9BE7VjwbJQQ2H1CEmmupW6q50u1BpkJHhMDGjR+w463faXJARHXR3l9D/TJNA1vrAO1uIfCNNVt56YMNFiEwBC0NbGs8yIPvbDHftwU4i9wLgT/ANAA2/GEeg0+bqQuBrYpwGJpWLuLgzn+Y738VDqUj24xoiXwAtatexhsopPzICXj9BexriLB39Qp2PH4Znfu2mhuZh3jYpINPu2h7u2kXFFJ+1AS8/gD1DRHqPlnOjse/RGfDdvN99yFfYTrYjljiPADPr1pPRUkhxx5RScDnJVK/nb98spVLFn1ETbOWu/puRHGVC3gQU/AS4HxzQaitmdr3X6KsajzF/YcTUR5qdrawZ9mD1P5xlnzJgg7ElcwcgcxdWPaU3oIiVTx4jPKV9s+0MibqTB1DCRWD9mqc8yB6yNp+cZciqG9xwI72B+ROEXQisuwlVAQV9OqvigaNscZjxtXfeInOahXr+hRn1bFeklcFb0YykjmFz5oq+AkSOOF+E3vnBNXFwEKcN8hUIT7z8Rg3aFtj8tNFvhuDbscZY9AeO95jjYQSxO48CTE3tiGuSy+SmQMan0P3g1uAzAoDERNmJmm/gn5K18+R5aWyi/a/yI05+AuIti4Zc/C/ORSMapiDxyGOLDWI6/0r5OnBlKeRO4eQGehfSSyHkB9Y6v0igzyl6hDyhKXOtzLIm+PItUuYOZI5nktYIeKta9TNF5ewanS5YA2HmUvYN9Ef9Jks0k7VKfRSS/2lDvHxmXUKrUB/6MPBLdyaIiaf3MKt6e3yHg+gP8APski7p4Eh1qTUG+hZqrtMBIaMindDvmEM+tZrK9kLDTsBZ0PDbolfXUMyoWHJDKg7LfcedqFhVin3kizStmYqSTU41JqUOhfBoeZkFzUcZsGh56N3wF85/MLDb7a0E+/E8kTh4RNj32oLa3j4NfGr5xesCSLibb2cRqYTRFiTUmcjQcQHHGYJIm5F74hsnovzYwttN0VMlpHLJFGZSqqQzSRR11nazNskUQHkBKxFiA/7PxHng3xKE/efDrU7msSGJCfSxPXiMEkTdwaJ06j2ZOuVDuwSKzl1Lp+bKNKES8j/VLEK51LFziI7qWJHcRikih2PxZ7vKyxW/SdMVeUTYiaLdiKyJxGsyaKfc6DNGWQ3WfSLlrbzMlm0ptgZcsblatqze/R08Vf8xi5dfCbXsUyki/8L9i/8M50ufiimNbb/8VPUjBc6tFPDPv9spxr7UIcafMVj1o6LdbafE5hroXVXD9uJZ6atRz8wwly2kvSWuQAysIz2wmTg1FUn1uGzMI3K0ZfPwePRmy0t8eDxQMV/XEWgb5W5aLID9O0wAv3wqB2IF3Eq8CHeyhuA/0K3xdudJvImkujCwEmkdyzeDcisY+AJRIB1FE4MgMHmHxUjozO/ej3g93nA4yF4hKYwy9SJIfejG1XuIDV3qMnIuUCPEO2DGO88odnogSr3cihzRyroixiGDDSRoTR6TgwAzWE+1NFqW8mIOIvo5e12ddPEVPTj3d4jeaXJUcghj3a2+E1I2ha7E8UMbEHPHzQI+H6StM24C/3w6J8iyivH4cQA0HIG1a56OapCKKQIhRWRtiZaN71tLtoQVTk9+BE/AwMRxNavEtxXinyta5GXbIb5TMFkcvHNRT8N7WZSc6E/Ft17dz0Su5ARODEAliMSNgDrFv6Ig/u0k+RobAaUoub5WUQO7jcX/ckB+mZcj36m3zOIHiAWvMjpouuJPh003qmi8dCCKWa/q837k7wX5NRws6LqVkTbmNe4D5MEHOw3TFXf8oyavrhBnb34oBox6x1VOvY8qwS9GecPj64ztb+f+Of+noKYY+22dZk4PDoZgfdiyz2HxeHRIIKOecuS6OokudO0U4E1188dMerl8vj4eCroQg7j4+NBonvMypBYVxvSyU7C6qu3kejZJYhI0maroFlJdBfOxToaeMpC58Y4db9nqbsgTt28RS9kvYsV5vU6kq7daVi9da2HPM9EdwaxqofT0RDGwyD0sK46dOk+Vr29Meo5jkypFUuBcxCFTDEiFS9HXkI6CCJLx9FIB9Ug06r5a1mGbNVABtuD2Kdz+RjZIbyVJk+JcAeywzDwRBfNKg7JQheg6/hvJLvOMnmPIsSjxy5I0ipbjEccTR5F9/41rlokEMMpk3AiWNf2RFciWeEzh/7A30iu85YjbtoNNmUdiJImFx60t8fg1+76Rg74y1sUIL52yXZerOtleu4Ami7GYu8fGOvaQ1cGLxdi0OnunGCffmra/N+om9bvUzdsD6nKp99TBedeHq8z7aJpsw1tAE8cMEgtu+hS1XHDTarh0ivVb0eOU+OCJVa+s3b6Rz6vNR7gf+nyrCmq6M1VL7/LkWedg78oSJHfi69Pf2pPmAbhMKF/vmu+twnZVl2LRADnCqdgyss7eegRvH7RpYys6I3P46GotJSh7Z1cUlbBm80N1HR2K/zGIE6kVmOT47CGG+cTTkCUNgBM/PZs+ozUZ/FxfQpZtaed4NWz6XhtMZHa7iRSzYgS5VfZYjYGjjP+8ACPnDmFAp/+zRUPGkhHczP3DBvB9HVaFq8ZZPZgCiC/B4CWGWPE2edHVfB5oHeRl70qQODkKbS/9JRRNJQ8E6ZGVvRmdEX01j5QKrqn6pIy+voD1Ie6Uw86mY4/JvI5qkTT5AWC9rGjfk+XKqMw7/wkNRT7Y3xrJueZoFd7HVl5oHyeATST4u6PVlFRFf1RNHVInsjwOs1ZJoQsA7lGEV0vcl3DPvZ3dNCrQM8wF26XTKQ1nR3s6tAMjjvIAvJ5BvgbJjPzewvuJdTVWQa2HwjRGlJ0rlpGaPX75qJHEetgrq9ul7D2cJh7P1gZ9ZBte+sAmL9rGxG9aFmiDnIC+bwL6ER09J8DaNlby64PVzL8tLMoLOtFWMHyXa00Ll9C6z3fhENfTwTxC8iIB02K+BRxTe8F8M7uneCBUwYOxu/1Empto3bTZu7duYXH9+4237cOUSGr7LOcXxiE5QArX0GBGnrKGarirAuVd8hRdnv/eCd55wLWkHTVt6hITR82XE2p6KvKfX4r/2EOs1w/mcbpJLYBGNdSkjt8Odu4m+T4j5Db42jyFseip5OzMwLNx1kPI6fxNSQZVaxn2IV+dmJWkHdRJnHgQdS6X0CUPEbE7NtICtktOeMsefRCnGGmIvmOQwjfryB+CXmZydOFCxcuXLhw4cKFCxcuXLhw4cKFCxcuXLhw4cKFCxeHI/4PwKX8EDwGSCkAAAAASUVORK5CYII=;" vertex="1" parent="1">
          <mxGeometry x="731.9" y="-580" width="70" height="70" as="geometry" />
        </mxCell>
        <mxCell id="sIMiyn0A-wrYiBe2mgz4-55" value="" style="shape=image;verticalLabelPosition=bottom;labelBackgroundColor=default;verticalAlign=top;aspect=fixed;imageAspect=0;image=data:image/png,iVBORw0KGgoAAAANSUhEUgAAAIAAAACACAYAAADDPmHLAAAABHNCSVQICAgIfAhkiAAAAAlwSFlzAAADsQAAA7EB9YPtSQAAABl0RVh0U29mdHdhcmUAd3d3Lmlua3NjYXBlLm9yZ5vuPBoAACAASURBVHic7Z13fFVF+v8/z8yccxNIAoSU24AAEZFIE6SFQIDQm6CgLioqigXLuq51f6u4rq6rfgF1WcWOqOvSVJpIC1W6ihCKoQnJvTeEXkJu7j3z/P5IwoaQBAsBQ+779eIFnKnPneecec4zz5kBQoQIESJEiBAhQoQIESJEiBAhQoQIESJEiOrHnj0H7J7Dh+tf6n5cDMSl7sDviYyMjMTdu3e/JqV/tygo+OOl7s/FgC51B34PrNm4sUOYVH8xTKO/aZh+wzQ2mobZwOGwNyAifan7V5lU6yfAkiVLWq5YtWoqBa3VGuzQFh7R2qp36uTJ7lprW25ubqdL3cfKRl3qDlwKvvhibnPTpl7SGn20xZ9DcatrWrXaVDLP/v37P9Va3wlg5SXq5kWhWinABx98UDsiIvI5RvB+1mKTZaFTWpfOa8vJPlFrXn/8+PHHoqKiDl3Ujl5Eqo0N8N57H9xumOY/TdOIMwyVbRo2aRjGJtM01xqGucUwxI7IyMjdSUlJJ4vLZGVlvWia5rG4uLh/Xsq+VyaXvQK8NGlSrVqa31WGOdQ01MuGzWxhKrOFaaouhmE0MGy2bqYyuhum0c40TNMwjALTNA8ZhnnYZjPylTLj4uNjryAi/6WWpTK4rI3Af7z6ahtbXv5GS/MN2tL3jBx521NsWbdoaL+l+UshxNa07t2f7dIlJeV4eHh0MIhOGvygZekZGnq3ZVmW1lb0oUOHRl9qWSqLy/YJ8MHYsWGnjh+fYcXG9RERkTtMU7W955578gDgk+nTrwgXKt00jWNhYbaBaWlpu0uXz8zMjFLKfM4w1QjTMAq01lfa7fZTF1+SyuWyVQAASE9NVacMvCQl3Xg6ziWtutGbyDT/HWjV5oRSZjPTZr5sGqbfMMyRaWnd5gDAhg0bahk22+02w3zMMNQKm832mFLmfaap8qKjo1+41DJdaC5rBShmUfI1KZLEVEi5LRgVJZQVbKrDaxrsdIezs144OV0wHM7PVc1In81mpEnDNk2JsPebN79iFwBkZGSYdrt9oVJqVK1atXZeankuJNVCAQBgZXJrpyXVNIAmdl2+7tOV3ToMIvCXDHiFEFECHK5rRh4TdvtJqhm5TWRufSesW7/8iLTeubbY2KBSKs5ms90XFRU1mIj4Ustzoag2CgAAC9Pa1AoPqFlC4JNO6Wvf/qZbh6+IsLbjkjVjVyYnR6qwYD2CaEQCrQnoSFL2AFiJyNrHVVz8CZvDdbzAmz3ZvzNzccHx4LZOq1efvtQy/VaqlQIAwNe9WtSMDNZYQIzXQDgtJP2j/cLVV5fOx2Mhvl3d6c8EegKABeAbEAwAkSBqAGY7gH0EbGbGZmbawEQb2n69wnuxZfotVDsFAIDlfVNizYLgYsG4F5IWC+LWbRes3l6cvqFXx6ZCiHeJ6AhJ615oOUlqerr5/BU/FOdJT01VdWyBKyGoPQEdNNAejCQAPgZvAHg5WVjSKvmbH2gsfrcLStVSAQBgQ1rH5iCaAaLTYJ7cduE34wDguz6d7wdhLBEebTVv5RQA+L5fyvuSaE7zuctnllff5v5dOlnMrwDsIKYozRwOoAYzHwSQzuCvhN/8vPXSpUcvjoQ/j8vaEVQRbRet3kxE7xChhZCUymMhvu/X+S0i/MWQ6Fk8+ACgiA4QUWJZ9WQMSk3cMqDLLABTBPCOZmovgA1m5JE6UoiuJGkiiOwEekvbAr4NvTp9sb5Xp5s29WpR86IJWwHVajGoNLtqOcclnvCOJELKpjWdPyRBQ4mo49Vzlm8umY+IDpBA05LXMoYlmfDHPk3MDxLE+PBTGN5w6dL8rQO69Asy70uallEAYHnRn7EbBrapIQts3ZjoD5r5vQKOCKzv2eEtEsZrl9JuqNYKMHzaNGtTv5RnAUwnwq1E+FpLq6B0PiLkEmhA8f+3Dkm9WhRgCginhGFc22TGot3/y0t9BLCpdB1tZ2/MAzAXwNyVg5Ijw0/z9RbErWwFd63t0ekTFtbLHRauzawkUcul2k4BxbSYt2ImgJ+ICETUW7HavnVg14ytg7o8nzGoS2sAICEOCFE4BWQO6XanYlorBKZfacZ2LTn4DBAEDTJILK6ozc6zVp0I6uBsQfQREX4g4rugxZbV3Tq8sGFgmxqVKnApqq0RWJLN/bq+SJJvJ2AyEfUhUMtCfQAItIeINgI8lEi8C/CN0Lg58YslX5WuZ8fgHimANeXKL5cmlNXO9kHJkfkBGqaZRwDowkynmHmuxfwDwA+w5nDWOK6hH0xOXze3suUGQk8AAICQNI9ASJq9/Klms5a1ZmW5BOEOAfovEdUiwg2CSBDxaEG0HArHyqxH6AdIiI9LX8/o3zVly4AukwOW8AqivwsSPwqIAWFRR+JOFBgjBWEwNO7TippAYi6R+GJlt/aTv74IhmLoCQBgU69eNY0wf26zWcvOevzuHJaaSJaYT0SRRIgDUPhYKOQ7QD+fMG3J5wCwa0iPJiDezFInJU5bujNj2DBTBQ7cqDU9zMz1NfgTzTS1edtla0v6Bb7tnfycZiS0XbBqZPG1b9I6tmZLf8aMAIng4OQlG3dVluwhBShi26Cue7SNmidNW3oSAHZdn9oWEHMJYhkJNogpFxLjhcZQEI0GUJ/BAONrjeDtYPkWmC1E6hGBYzQawGPM+getxXvadmBO0VvBWXzXNyVZa/0fQ1HLFnNXHimZtjI5ORJG4E1m9GStB3ZZsWFdZcgdUoAitg9K/c6wqdTG0xYdy7y+W2/BNJ2IvhCsHoe0dklNLevNWJgJAHtuTw0z89QTmuhJZoQx+BAz6rLmtzWoO7O1mFiMa/z54h/La29DWlotqU5/rzU91GbBytnl5VuR2m4sazyqCf1Sl61bcaHlDilAEdsGp64hDvSUynYdAe8R8UeNmncd/dPWlX8i4NoGUxfdWDL/nttTw4x8YzIzhjMDzAzNnA9N3RrOXLTmfO1t6tv5E82sW89fdev58q7oeu1DmvF3i7lv9xUbVv0WOUsTMgKLICCGhO1RZp5MoHcazUi/G2PHMhijWOClknl9I/o1t/nNdcTUi0GLii4XAAhj4vmZQ7oNrqitTf1S7gJRR4QZD/6cvqUsW/86gBcFMCu9Y5um5y3wCwgpAApX/gDYAf0sAeMbzVz8AAG8Z2j3FAb/lPDZou+Awvf8rJt6PRK0gus0kEFEgwjcjojfDkiRCMaHAKKIaMbOId1uK6utjL5dWhPwChEPa/3Fz18X6Lp8/UsgTGdJc+d37Bh9QQRHNfcEFrP1u5SmglGTiP5xxefpTxdf1yTuklx49++7qadzv8aHYG5MQg9BMG9ZkCJWM/Omk6jzYNK0aQUA7th5Q/epYHzAwAfbB6fmNf1y6fTi+r67LrW2DljTwPRki7krNpbXn/TUVGWDP5Ghr7aYGxJzA4vRgDUngtHAQMGdAF69ELKHbAAAGYO63ClA7xHhB4KY1MSMmbQvzxsVsJkzEmcu6b7r+rTrBfG/AJps84f/zTl7dt6+YT3f1eC0YFC0S/x8wYGS9e0allbfCuj5zLo+s+zUdNbiHxigjP5dPrcIP7Wcs/zhM20PSzJPH6vTGtDtg5a+FqCrmfkqZvYwY5MGb2KLd2pBP1mBwL5afuFpu3Fj4ELJHlIAABkDuswioquIkFjo/qMFBF4gCD5AdpfEV7EU9zSetmgzAOwZ1v12MP0LJDo3nLbw+zLrHNY7WhT4F4FZnrKfbBvmiXhEMycX+M3bTON0J4vRjTVSmNBas/ZoppVgvZ602CSEf1PbRRvLdDZdaKq9Amwb0qOuFQj8aLNqOoMqvwOgZ5KgaBDnCcgdBLyT2KrLJBo7VgPAziGpVxOJNUR8Z6MZ6VMrqnvnkE5x/qCxnLX+lkHDmDmDgabMvE0zr2CNVTKoV7Zasjr74kh7LtXeBijwF9wJ4qVXfPWVf8fA1AwL/B0YPcCkLfDfr5qVPhNfLAFQ6Mtn0DRAj288Y2m5g79tSI+62goM9gcxlJkTGCQZ/CY0zT9N/pUdvlp7/KIJeB6qtQJ8M6xjOJ/kP4HFyM0DOg8p0PpNIsSD8AxpvVtIGgjgTBQQkfG2Zt7RpGXqs5i59Ky6tg5NcSCghkBYQzkYbAdgJZjnkZB/vHrW0t9tKHm1ngI29kp+RAgaQ0RriDCi6Md4ucW8FU9kDEsykR+z57TjZELbtzcGtg7uMoaY7iMEOzadteoEAGy7LjUBmoeyksOlsiVoIWdZJ47NOF4juLzTtKoRMVxtFWBD7xQHgbcRWBJRBAgQhH+3mLfyAQIYADb377JSS2uUZBVF4C+1VClsaUOCh0KKYcIw60e2Tzka3f+6euFNkwwAvYlowSUW7RdRbacAra1xRFhITFtJ8DPE+KhFx1UP0jyc+ejDAu+lALXXQj8nwDsBniOVctVo2+Fonb6DHZEtWikh1UkAnwHoBiD2kgn0K6mWCrCmR6ebmDklKNDCYOoA5um7arnuvKbEMm16amoYc1AANBFCCaN1WzOqZ397RIvWQhrGHqXUX4VUy4hoLwAw839RBRWg2k0Bq7p3aiygV5PgocQiCYQeEXWO31K8XLuuV8dOhi38LtZ6uHLV80f0G1wrol0nKW02SCnvl1J2llIOkVLmKKUmCCEmEVE+M48FoIjo/11aCX8Z1UoBvu7VombNgvClRDyNSKQSI5zzqZ8WQhkRdL80zAcZiLUlp8qa3XtK0+nOkFK+p5S6WQhxRd26desSkT5x4kSsYRh/llKOkVJmEdFwFE4BVxDRA5dazl9CtZkCGBDL/WFTGPokIB4n8E4w3YT4qBfl6dP3Ij5eqpQeRliH5BMqPPwzIeV79erVWwsAPl9OKhHlFm8ZFxkZmQvgidOnT79JRFOklMsAfIIquLhWbRRgaedrxwnm6zRABM7lGjWzydLb1FXNTaNzqjDqNYBS8gl/IDCxaWLiWRtBMHMEs3VOpG94ePheZk5FoRE4BsBbF0eaC0e1UIBFydf+jcEPa10Y00eGqkUt2lwne/Q8JevUBUm5G+Atmrlzy5YtXy5dnsEulLNdHBFZzPwGgEEIPQF+fyzocM3TYP1XBkC28CM6rXcYru3wE9Wo8QaT8T0zVrAW9xZYaqctjLdv3b79vmZNm75ZXD4zM9MGZrff719fum6/399UCPECM3ctDB2vejbVZa0A89u3fhTAC1rKXO6W5keHlPXSDH+je1pqOgCsXr1mCpjebdOm5QoA2Lx582hoMWX79syDTZteMQ0ADKNGM2b+oV69emc8e3l5eS7LssZqrQcKIV4jotsBjAbgvPhS/jYuWwWY277VGA36c7B9542ie/fdMMw/9evXN6s4fcWKFS215nb5+TXaFF9r3rz5f7du3WoH9Mc//rgzukmTxElCWK20lqsA4OjRo3WCQf1EQUHBzUKIN8PCwhKJ6CQAMLMAUOU2lLwsFWBOm1YjYfHV+Xff85CId0yVwvjjwBKDDwDMeBXQt3fr9r+NIQGgWbNmr23fvt0D8Ae7du3uaVlsSYnPvV7vY35/wV1SqvcLCgqS4uLiziqnta4lhNh/MeS7kFQ5o+V8fHnN1S20wNb+GzbdZ8XGFjAYQHBfyTzp6ctGMmNVcnLy6rLqaNq06TSAWzC4CYiHg/TfNABmfU1MTPQ/Sw9+EXUBHL7wElUul90TYNC3WzYXL+aQ1j4mAa1FHIB9ALBo0aJGGnoEtO5XXh2bt29vy8zPgvkgmA+AWUHrH+0uV7n7BBKRG0CV2h4GuEyeAMxMzEwAUDz4AOD3+39kZotZpwFAenq6srR+C1rf161bt2DpOjZu3NRn06bNs4VlPaK1HhsMBm8BsJKIegH4k9frnZGbm3tNOX2oB6DcD0F+r1S515bSjHv33Wh3VNSx4cOHW2WlT5/5+XJDCpff7786IiLqSSHkkT59ek4oTl+3bp1da32jlPIWKeVym832WlJS0j4A2LFj56NKkbdx48afMjP5fL6RQsjnpVQ7pZQziXhu7dq1dwNAMBjcqZQqcxeR3zNVWgHGvfFGc5sQwTFjxmwrL8/06Z/fIqWYopT8RgipatQIS7YsqxGR6qqUuElKWVcI9a5pyilt27Y9E4iZmZlpY+ZV4eHhKSVfAffv3x8eFhY2Rkr1kJSynpTyqDTUNimEMA2jQ2XLfKGpsjbA+PHjE4TGdWMeHPN8Rfm0DnwtpJmjmTsReFe+v+CAlPKIEJivtXi2a9fkMj18gUDgXinl9JKDDwBF/3+VmSccPXp0kJRiILQeBKI5F1C8i0aVVICxY8cKS2NKwBTDSqdNnDg1IiKiIEUo6q6k0QMkmjGzYmYwc0MLnNa3Z1p6RfWvycyM4oLA6GAw2L6CbBYRHWPm2sxcS2tdKV/vVjZVUgHCatS4hTXXfXzMGN/YsWPNmBh7BympuzRUDynyGjHkBoC+AVsPg5HHLNZr5umC+QbB/DgzL61ou9cap0+Ph5TvlTw8opjMzExbZGTkLYcOHfqTlLIGM78FoLYQ4oJ+tHmxqJIKwBr3QbLxf+MmfKWkjGbmTcy0CtoaNequUWdZ4p/9d9r7grE5WOC/yQiv+Tw0P7VgwYIJzPzHspTgu+++G6w1tzp06MA9Ja9nZmZGhYWF3SOEfJiZtjDzk7Vr155LRPrkyVO3GIaxuXRdVYEqZwSOGzcuPN8fOCGlnG0a8o5HHnmk3A8sP/vssyaA2CyEGjB8+NCFzEzz5s1/VQjxJyHUO5blf7Bfv35nTgJZs2aNWyljrWGogS1btvwWALZu3eowDONhqdSNQsqZkujNevXqnQnzPnXqlEMzT46MiOhVuZJXDlXOD2BZViQASYCsaPCZmQKWfluDpw0fPnQhABAR9+/f91FmfgSk7zBtYd8sW7bsKgBIT0+PAInZAL/VsmXLbzdt2nTlli1b3iEhZgDIDLPZkhLq13+05OADQDAYTGOtK7Qpfs9UuSmgQYMGh3bu2pOnwVdUlO/DKVPuUUI2DfiN60un9evXZ8L8+fM3aSE+sjRvWr58xRtSyiZg3svMGzZu/O5zACe0lm9e3bRpme7iYrTWvQ3DqLKHSlW5KQAAXvzHPz8johulMFo//vgj53yc+fb773cyhFokhbzhtttGzCuvngULFjiVMlZJKROklJBSZksppthstvEtW7Y8UF65Yvbs2RNWq1atNdHR0a1+q0yXiio3BQAAQT/NzKc0rHN22Jg0aVJ90pjJwP+VN/izZ89vOW/e/DeIaInWPE9r/oSZ85g5ihm3BIPBfhkZGeb5+lGjRmQfFG4FW2Wpkk8AAHjxpZfuESTflErc9tijj34MAK+//o7bZuN0IeSuWrUi+5d0D0+dOrWZlMZwKUV3IYxtSsn/njx5bNnw4cOt9PRla4QQi4TA/xk22wNCiAeUlIYUYoE0jHkCWNasWbOfSvfhwIED/5FSvl+3bt2FF1P2C0mVVQAAeOmll8dIpV6TQoyDqSabQnwppTwVqFkzJTIQEJCyuxKil5CqoRJyhxBqTkxM7SUlF4IWL17ciYScReDEbt26HQWAqVOnyoZXXJFiCjGYpOyqpLxaSnlaCrFVKbVZSpkhpdwupfxXXFzcVUQULL+Xv2+qtAIAwD9ffXWoEmqSlDJGSmkpKd6XUgohhRZKrbMptWTEiBHnHAsHFA507TrR66VQ43v0SJ1SVh6gcK4PBoOtiGRbKWmAlLK3lBJCiHEOh+PRypOu8qnyCgAAEyZMiNegiUqq66VUHinE3ffee3e5xl8x8+bPf04J1bpXr7RBFeVjZrFtW2YPw5CjpZStpKR0KdXdhqFaxcfHn7MzeFXislCAYsb/618dDci/SyW7Cyn+qwQ9O2rUqB1l5Z09e94NUoqXtA5eO2DAgCOl05lZfP/99x2FENdJqboqJdcTGf9p0qTRqr17949USjxSr567ZeVLVblcVgpQzMSJb3cyDLpfSjVESjlLCPXOrbfenF7s+p0588s+ypAfGkr26tu37//OAUpPd5ummSqESJVKJUsp1xtK/efQoUMLS9oNe/bunSuUWtjA7Z5QVvtVictSAYp5//33Y4nUCKXEDUJKlxTyK6VUppDib1KoEULIXMOgNkKotlLJzlLKPCnkV1LSPL/fv6p01BAAZGZmxiqldgBo1LBhw9/V+T+/hstaAUoyefJUl2nydVKJXlKqjlLKOlJKJaXaLJR4g7T+snfv3ud1/mRmZj4lhGrQuHHDey9GvyubaqMAJUlPT1dHjpy8VilKNgx5rRCynZQSSskfiORmw5CbpJR7iCjr2muvzSmeOjIzM6OYsVMI6p6a2tGvtWgmNB3TQgQ8Hk+VXA4mh8PRxhYMZu/NzfUVX4yLi4u3EcXuz8nZ4nbHJgK27KysrErf8yYxMdGWl3ciRQi9Nysr96JurLRo0aK6gGpmGPIqIcSVSslEpaSLSMYrJU0p5TEpJSkls5o0adINAJxOZ2dibgsgP9vrrXIfhgKAEuD1ASVnADgTXWMo8brWuAbAFdpSD0qr4HUAlXZoQTGnT514SQAJlqXGOR3xL3u8OUMBwOVyNRGWVSvfsrbl5uaWFZP/m0lLSzsEYEXRn7OYOnWqbN68ee2AlLUQDJ65EQKBwPdSyh2maVZZR5ACcBCEK+Pj42vm5OScio2NjQCTuzi6WsjgGyxtHgBoEBPjCJhmewDbPR7P9oTYWDszU8CUSYD8xuPxFLhc8V1hkc72+VYACAIglyuuA1miNpRam5WVdfh/dcm2RGpHdnb2jw1iYhxB4FpNeAOMg0TUwel0NhUiYMHSXS2BYBipcFwC33uRS/kQSn36VaSMlaKQF4vCxSCmOYqoPwAYhhhIxLOKM7AlX6NAoLHbbm8XVGo+MTck1pPdDsfQgBJ3BE31tWBxp9Y6wemwL4YWPQjo43LYFwJQTrv9r6zlAxDckq3g6piYmEin05kcNNQcYtEYWk90OxyjA6bZCKAYYmonmNuBOZy0boegrMPMxwRzFDPnX5qf6fKlUAGEmAoqnAKI6QYK6umlMzLxgwCezvZ6xzOJYZroAAAw09wsr/cPQnAiMXZle71PZ/l8TwCc5YqP70OExgTsDWr6TGruGxERESCtn4DQD2R7vRNs+fk3MPjpIiNqt8V4L9vnmwzQsWyf76Nadet+D0Czxi5izrt4P031QAFAdnb29y6HvbHL5XKT1vJUMJgbbp69GsqgWKH0fgDweDz7AOxzOeJTwLwfAEiTi4G9ZwoQ7SFBTmWzPRwsyP+jJMyyQKfYOnk9kXJKv94LALuPHDnmstsNlBOckpGRUQDgHIUMcWE4Ew9AhNlg6y1mLvOAZAJv46C4BgBcrriOTofjtcLrhcaCJtpChA5nsmt0AvOOgP/0n4MaE7M9vhbElMFBozsDGZZhdAQAtzs2EYQTKLQXSlJu1G6IC8cZBRAaU8Hocbqg4IuyMhpB/U8m3OFy2GeAxXjF/HbJdK/XuwLgHS6HfanTYV8Koi1ZPt8yMP2gCF+5nPapDNRnIb7SoGcYeNTlsM9gS04lxrlOFcJul90+65zrIS4tMTExkRWlJyYm2txud3ipyyo2NjaidN7o6OgoVByVVOViFkOEqFLIsi4mJibaIiIiotxut87NzS3zq9vz1Vu/fv3ax44dCwL/2371UlIsU+KxY5b3d9Kn3wNn1gLc7tgroOXDYPRjoGGJPCfBWAvghWyfr9z4d5fd3g0CI8HoAcBdImk3CPMZ4nWPx1Pm2nxR+UeJcDMDGdle38jy8v0SnE7nlQT9MBh9ASSUSDoB0BoB/H2/11ulgzp/KwIA3A7H3WzJzcwYU2rwASAChB4MdCmrArfbHe1y2OeCsASMkTh78AGgERj3E/Rmt9P+HMpbgCJ2M9AGwAU5F89lt99HrH8A4z6cPfgAEAlwTw3d+UK0VZURLru9G4MnAbARsJGJB1mMuGyvj0iqumB0B3gSEZ9z9q3T6YxhK7gSQD8AIPACJjFEqKDLHwhGSc2NmfguANvAMJjxjMth/3dlC+V0OnuBMBGACWAdGAOKZYKQMdDcg8HvMNMFO32ryuKy2790Oezsdth3n8fCL20vkMthn+ty2NnlsGun3T6mvIJtAMPliJ9SlJdddvs5hyq6HPHji9LX/lpZinE67F8V1uX4MT4+vqIj2Mu0gaoTAoSrAYAZSw8ePHiigrxnGYNuu70Piu58gF7y+HwTyyu4EQhke3PuALC+qNWXEhMTbb+t6+VDKJQJ0EtycnLK3dgJpWSqjigCjhRuqYVGv6QgEwq/ymF4ateNHpvtPe8GWUEm/RdisQAMR37eiesBfPprOn1eCEfAcAPiF8lUjNPprEFa38eEQcRwAsgjovUsxL+ys7PP+RTN7bSPZWaHgJgZFR2dfuTQoYcI6MOEoGbcKoS4kti6FQBIGk8Vr4ie2278KGK0Y6ZMj8931smgboejD4NHEdCMC59cu8H4LNvn+wSlb06How9DDyEib5bHN9Ztt3ctHC+2g+m12nXrfnn06MEUaZFPgFBs2Xd12u1/xs+IEkpKSjIBpAIAE31U5K8/Lx7PgcUAcgEAmnr8nDK/BmYqkol7uh3xD+MXRD45nc4rBestILxKQBcQEkFoweBR0NYGpzN+1LntYThAo5m41ZHDB98nwisg9CCgNzNHSFmwG6BRAI3WOjCkrHbbAAYx/QOg0SU/NCmcPu2TGfwVgBsYaAbgSgB9QZjsdNjnJCQkhJ1VGelWAI0GY5jbbu/LhMUArgcomQSSjh49msAsIy0gSQQsfgVFe+gR4RWX3b7Q6XSWuRVaMYcPH24OIBwABPMveY3SADYUdhKVFlJtBoP/AJAFAAya4HI4vna54s7bnsvlqkusFzHQkICNELqT3eszLUZDBr8DQBLoTbc7rkVZ5VmjExENJ8IrBLoeoEcBnNq//6AHwAIAIBY3llXWZ7f3QuGRM/kQlgoEAQAAB+lJREFU4sxHKj6H/XUAtwE4QaB7pGFG2/L9tQl0KwjHCOhTkJ8/tsz+AIIJE0BYzsQ3A3QbNNYZhrFPWJaXmH9SOTk5B1wuVzK0NQtAaxB6EOsNbofjMwt4yuv1nvNNnGSO46J7ShQpz8+FGF4uXEGq+0vK/RL25ub6HA5HZ8E8C4QWAPeEFt+6HPGfMsmnPR5P2Vu6svU8ADcYO/2WlZqbm3syGwB8vr0ARruc9sZgdGdLPArgXF8FYSCY7svyeiedWzc+BKEvwN3i4+PjcnJyzgpAJaIRDAaDZnqysw8BgDs+vj0D9wJgAg3P8nrnlyjysctulyB8SIQxMTExL5Rhw11JwMosj68Xzl1sWwsU+QGys7Ozsr2+dswYg8KoF2LwzQK83eWI/ztK+eQZ+N/bAvMvjRXMK6rkvF/f/ha8Xu9P2T5fGyJ+CIVbuAqAbiHWO4r8EWe9ASQkJIQV+THAgp8pM/RM4yMAAKFnOc3uz/Z63ysrwQgLm1XUDyWJbiiZFhsbG8HgwQAgmN8pvs5E9wAAA1+XGnwAgN3n+xSFAxthmmbHMpolTfp5nDv4Zyg5sEGPz/fv+vXr/ydYUPAEER4CEA7QX1wO+zVBzcOKLWoiOs5Fq7VBKWuVV3lZMCGqsA5cjJj6YJYn5w232/0JdPApZjwAIJwZz7js9tYsxE0ejycPAAoK8q4hiBoAIFhEuOz2c3YgI4FGzAAYDqfTWaO47BkYi1HOj7137958l9P+GRj3g3AjgDP+EFOpIQDXAPBjls+3rESxlKKKD5XVn6Io3qMAYoj5XIOXEPB4Diwp99dBGatt+/btOwLgSbfb/QZbwQkAbgDQVwnxAoA/AgC0zoYonAMErKsAfFdRI6V6lVi41E+ZP7/Mb6PI6n7M6XS+Lth6nUHXgTBQQD8H4DEAIC2cxaYig98uy2zkEhEKwWAwEsVPsyJIoMLdwoXGh5pwPwGd3W63KysrK7uovRFUWP+7KBkHQXAU/kUjQBhRUd1MHHXuRXhwnlfdcpdbizo33GW3fwHCIIDHREdHP3P48OHjWTk5GS6H/TCAaAb1xM98nStc/uVrCvumf7PD55dSNPdf73LYZwPox4yHnE7ns+fcycA4ZlToJdRalxWeVmHI2n6fb73TYc8gIIktaxiACQmxsfYAkAagwGKeXKpI0f7HvEAzVXiTicL1mtKFK/KBADj/ejuz4DeIaRAAFW4YzQCsAaAZNJPAd4FxY4OYmKd/OnjwvI6AcJvtToDDALCwuMKj1ysRTYyJTOiHQldxUwDfEpBbfOtJxvv7fL6MSmm90Bh8BcQ3ApgQVOJGFNojn5c2DAEcAJAApu89Pt+TldGdn7NFzBlXKkt55n2fhHgFhACA8KCh3sN5lKleXFxjAj9XWBjT9h84UOnfGZQHl5BJWlYBAOQHg9+iaP7WRMmV1bZpWR8DCILR3uFwNGDQHwCASbxzTmbCusI0rrT+CJfDPtnpdJa5AtcGMEhT8T48R+rUqbOlOC07O/tHBopPyezrsttn2O32Mo9OredwdNFCLGcgCkAuQzx2QaUohdMR/7HL5WpSVlpSUpLJhOLDHXP35+RsB4CiV6gvAYDBf20QE+Moq7zL5WpSnpw/h725uT4Q5gMgAQwF0JaAPR6PZ1HpvAz+uPBflOx2OMq0ARISEsLO57epCAWgD7G+1eWI/wZES6CxmwVLYiT4iG4GozEAMOOvpT1+Ho/vFbfdXo8JD4AwSBIyXU77F8T8HUPkE7GDGT00uHORUXUQmgd5cjwV+Q4SXU57udNDeI2IW3fu3OkvLx0ACOgPbf3B7bCvBCGdC2VSxGh47PChP1DRkjeB/oISVjtJ60m2ZG8A7qAh17sd8a8Q0zfMnK8lGpGmwdDWHwBcg2KP5q+AmD5k8ACAHwEgGPQeyghS8Xhy5jgd9vkE9GHwZJfD3hmCp0uLfExUVwMpAX/+3WB8BuDbX9MXhUKPWRxAyWAkgwDiM+YwCDiuGU+Xs9jDWT7fg25n/CZmehGMWAAjGTQS4JJWswZhhqXxuC8nZ+95+hQNxjmvPMXk5eXdfn6xKAtAbQZSwEgpKVPRuscxMD2R5fWe9djNysrd6XQ6+xD0NDC5GJjABIAIxCg0yQi7tKV/0+FQYTVrzjl96uQhAPUABIUKfFBOVs73F9wYHmZ+CkZ/APdC070WnZEEAPIF0a/eppYASKfT2RFadxRAfQYagFBQ6LGjdbb8/Fm7jxw5dr6KYmNjI0wp+xDQlQlOAH0A1ABwQFi60/nmfJcrriNp2fx87WR5ve+jAsdGEaqew9HJIu5wRiZGPjO8gmhtnt8/+/Dhw8fLKxwfH19TStxImjqDEA/CKQL2ssXL7Tk5X2/E2W8ILrt9OBHVZmGtzc4+8LO2jHE6nb0EcwKAg1leb5mh+CVx2+2pTBhI4EaAIA3kErAxYFmfHzhwIOes/rhcrUjrdsx8JNvnm1ZRvZX2ebjTGdeTWMwGYANjsT8YHHKe5eYQl4BK2yjS4zmwkImHgxAAoYfNMDY6nc5eOFvpqn1AxqWm0jeIcNvt/ZjwMYA6RZdyAewHEAHQpGyvd1xl9yFE+VT6VrFZPt+8oOY2IMxFoaUbi0IrugmYK10BQ1TMRR0At9vt4kCgNQnhAHAwyLzS5/P96tepECFChAgRIkSIECFChAgRIkSIECFChAgRIsR5+f8b70E7GGImYQAAAABJRU5ErkJggg==;" vertex="1" parent="1">
          <mxGeometry x="210" y="-900" width="55" height="55" as="geometry" />
        </mxCell>
      </root>
    </mxGraphModel>
  </diagram>
  <diagram id="juU7NyqRE_OJVcGRB8fj" name="Page-2">
    <mxGraphModel grid="1" page="1" gridSize="10" guides="1" tooltips="1" connect="1" arrows="1" fold="1" pageScale="1" pageWidth="850" pageHeight="1100" math="0" shadow="0">
      <root>
        <mxCell id="0" />
        <mxCell id="1" parent="0" />
      </root>
    </mxGraphModel>
  </diagram>
</mxfile>
